<svg width="83" height="10" viewBox="0 0 83 10" fill="none" xmlns="http://www.w3.org/2000/svg">
<path d="M21.8267 9.10585H23.5639V2.15395H28.7784V9.10585H30.5159V0.415527H21.8267V9.10585Z" fill="#FAF1E7"/>
<path d="M39.2061 9.10585H47.8953V3.89139H46.1578V7.36726H40.9433V2.15395H47.8953V0.415527H39.2061V9.10585Z" fill="#FAF1E7"/>
<path d="M58.3231 0.415527H56.5857V9.10585H65.276V7.36726H58.3231V0.415527Z" fill="#FAF1E7"/>
<path d="M82.6557 0.415527H73.9653V9.10585H82.6557V7.36726H77.4448L82.6557 2.15642V0.415527ZM75.7288 6.62938V2.15395H80.1996L75.7288 6.62938Z" fill="#FAF1E7"/>
<path d="M7.72284 0.403977L7.72169 0.402832L7.56066 0.565177L0.25 7.8758L1.47919 9.10499L7.72514 2.85906L13.982 9.09314L15.2088 7.8615L7.73353 0.413524L7.72284 0.403977Z" fill="#FAF1E7"/>
</svg>
