<svg width="20" height="21" viewBox="0 0 20 21" fill="none" xmlns="http://www.w3.org/2000/svg">
<path d="M9.92264 11.0397C11.5696 11.0397 12.9297 12.2565 13.1694 13.84H17.959C17.7023 9.59659 14.2 6.23926 9.92264 6.23926C5.64534 6.23926 2.14297 9.59659 1.88624 13.84H6.67591C6.91556 12.2565 8.27572 11.0397 9.92264 11.0397Z" stroke="url(#paint0_linear_10712_28345)"/>
<path d="M15.3409 9.43136C15.3409 10.313 16.0508 11.0229 16.9205 11.0229C17.7901 11.0229 18.5 10.313 18.5 9.43136C18.5 8.54968 17.7901 7.83984 16.9205 7.83984C16.0508 7.83984 15.3409 8.54968 15.3409 9.43136Z" fill="#FDCEAA" stroke="#FDCEAA"/>
<path d="M1.34091 9.43038C1.34091 10.3121 2.0508 11.0219 2.92046 11.0219C3.79011 11.0219 4.5 10.3121 4.5 9.43038C4.5 8.5487 3.79011 7.83887 2.92046 7.83887C2.0508 7.83887 1.34091 8.5487 1.34091 9.43038Z" fill="#FDCEAA" stroke="#FDCEAA"/>
<circle cx="3" cy="3" r="2.5" transform="matrix(-1 0 0 1 13 2.33887)" fill="#FDCEAA" stroke="#FDCEAA"/>
<defs>
<linearGradient id="paint0_linear_10712_28345" x1="3.07225" y1="7.2655" x2="9.97346" y2="17.4089" gradientUnits="userSpaceOnUse">
<stop stop-color="#76A0FC"/>
<stop offset="1" stop-color="#B9AAFD"/>
</linearGradient>
</defs>
</svg>
