<?xml version="1.0" encoding="UTF-8"?><svg id="Layer_2" xmlns="http://www.w3.org/2000/svg" viewBox="0 0 133.65 197.91"><defs><style>.cls-1{fill:#fff;}.cls-2{fill:#fd7f3a;}</style></defs><g id="Layer_1-2"><g><g><path class="cls-2" d="M50.78,197.91H29.69c-13.59,0-24.61-11.02-24.61-24.61h0c0-3.83,.55-7.27,1.65-10.31,1.1-3.04,2.69-5.61,4.77-7.71,2.08-2.1,4.64-3.7,7.68-4.8,3.04-1.1,6.52-1.65,10.45-1.65h21.16v11.57H29.83c-8.55,0-12.83,4.37-12.83,13.11h0c0,7.05,5.71,12.76,12.76,12.76h21.02v11.64Z"/><path class="cls-2" d="M92.41,148.83v19.07h21.37v-19.07h11.29v49.07h-11.29v-19h-33.36c0-1.41-.03-28.48,0-30.07h11.99Z"/></g><rect class="cls-2" x="64.57" y="148.83" width="11.99" height="49.07"/><rect class="cls-2" x="59.38" y="143.65" width="11.99" height="22.36" transform="translate(-89.45 220.2) rotate(-90)"/><g><circle class="cls-2" cx="66.83" cy="66.83" r="66.83"/><rect class="cls-1" x="66.04" y="41.49" width="5.35" height="5.35" transform="translate(51.36 -35.65) rotate(45)"/><rect class="cls-1" x="88.73" y="64.18" width="5.35" height="5.35" transform="translate(74.04 -45.05) rotate(45)"/><rect class="cls-1" x="62.26" y="45.28" width="5.35" height="5.35" transform="translate(52.92 -31.87) rotate(45)"/><rect class="cls-1" x="84.95" y="67.96" width="5.35" height="5.35" transform="translate(75.61 -41.27) rotate(45)"/><rect class="cls-1" x="58.48" y="49.06" width="5.35" height="5.35" transform="translate(54.49 -28.09) rotate(45)"/><rect class="cls-1" x="81.17" y="71.74" width="5.35" height="5.35" transform="translate(77.17 -37.49) rotate(45)"/><rect class="cls-1" x="54.7" y="52.84" width="5.35" height="5.35" transform="translate(56.06 -24.31) rotate(45)"/><rect class="cls-1" x="77.39" y="75.52" width="5.35" height="5.35" transform="translate(78.74 -33.71) rotate(45)"/><rect class="cls-1" x="50.92" y="56.62" width="5.35" height="5.35" transform="translate(57.62 -20.53) rotate(45)"/><rect class="cls-1" x="73.6" y="79.3" width="5.35" height="5.35" transform="translate(80.31 -29.93) rotate(45)"/><rect class="cls-1" x="43.36" y="56.62" width="5.35" height="5.35" transform="translate(55.41 -15.18) rotate(45)"/><rect class="cls-1" x="35.8" y="56.62" width="5.35" height="5.35" transform="translate(53.19 -9.84) rotate(45)"/><rect class="cls-1" x="32.02" y="60.4" width="5.35" height="5.35" transform="translate(54.76 -6.06) rotate(45)"/><rect class="cls-1" x="28.24" y="64.18" width="5.35" height="5.35" transform="translate(56.32 -2.28) rotate(45)"/><rect class="cls-1" x="32.02" y="67.96" width="5.35" height="5.35" transform="translate(60.11 -3.84) rotate(45)"/><rect class="cls-1" x="73.6" y="86.86" width="5.35" height="5.35" transform="translate(66.9 206.79) rotate(-135)"/><rect class="cls-1" x="73.6" y="94.42" width="5.35" height="5.35" transform="translate(61.56 219.69) rotate(-135)"/><rect class="cls-1" x="69.82" y="98.21" width="5.35" height="5.35" transform="translate(52.43 223.47) rotate(-135)"/><rect class="cls-1" x="66.04" y="101.99" width="5.35" height="5.35" transform="translate(43.3 227.25) rotate(-135)"/><rect class="cls-1" x="62.26" y="98.21" width="5.35" height="5.35" transform="translate(39.52 218.13) rotate(-135)"/><rect class="cls-1" x="88.73" y="33.93" width="5.35" height="5.35" transform="translate(52.66 -53.91) rotate(45)"/><rect class="cls-1" x="77.39" y="37.71" width="5.35" height="5.35" transform="translate(52.01 -44.78) rotate(45)"/><rect class="cls-1" x="69.82" y="37.71" width="5.35" height="5.35" transform="translate(49.79 -39.43) rotate(45)"/><rect class="cls-1" x="92.51" y="52.84" width="5.35" height="5.35" transform="translate(67.13 -51.05) rotate(45)"/><rect class="cls-1" x="81.17" y="33.93" width="5.35" height="5.35" transform="translate(50.44 -48.56) rotate(45)"/><rect class="cls-1" x="96.29" y="49.06" width="5.35" height="5.35" transform="translate(65.56 -54.83) rotate(45)"/><rect class="cls-1" x="92.51" y="60.4" width="5.35" height="5.35" transform="translate(72.48 -48.83) rotate(45)"/><rect class="cls-1" x="96.29" y="41.49" width="5.35" height="5.35" transform="translate(60.22 -57.04) rotate(45)"/><rect class="cls-1" x="100.07" y="30.15" width="5.35" height="5.35" transform="translate(53.3 -63.04) rotate(45)"/><g><rect class="cls-1" x="73.64" y="64.14" width="5.35" height="5.35" transform="translate(69.6 -34.39) rotate(45)"/><rect class="cls-1" x="73.62" y="56.6" width="5.35" height="5.35" transform="translate(64.26 -36.59) rotate(45)"/><rect class="cls-1" x="66.05" y="64.17" width="5.35" height="5.35" transform="translate(67.4 -29.02) rotate(45)"/><rect class="cls-1" x="66.06" y="56.6" width="5.35" height="5.35" transform="translate(62.04 -31.24) rotate(45)"/></g><g><rect class="cls-1" x="58.48" y="79.3" width="5.35" height="5.35" transform="translate(75.88 -19.23) rotate(45)"/><rect class="cls-1" x="58.46" y="71.76" width="5.35" height="5.35" transform="translate(70.54 -21.43) rotate(45)"/><rect class="cls-1" x="50.89" y="79.33" width="5.35" height="5.35" transform="translate(73.67 -13.86) rotate(45)"/><rect class="cls-1" x="50.9" y="71.76" width="5.35" height="5.35" transform="translate(68.32 -16.08) rotate(45)"/></g><rect class="cls-1" x="92.51" y="30.15" width="5.35" height="5.35" transform="translate(51.09 -57.69) rotate(45)"/><rect class="cls-1" x="100.07" y="37.71" width="5.35" height="5.35" transform="translate(58.65 -60.82) rotate(45)"/><rect class="cls-1" x="35.8" y="71.74" width="5.35" height="5.35" transform="translate(63.89 -5.41) rotate(45)"/><rect class="cls-1" x="58.48" y="94.42" width="5.35" height="5.35" transform="translate(86.57 -14.8) rotate(45)"/><rect class="cls-1" x="35.8" y="79.3" width="5.35" height="5.35" transform="translate(69.23 -3.19) rotate(45)"/><rect class="cls-1" x="50.92" y="94.42" width="5.35" height="5.35" transform="translate(84.36 -9.46) rotate(45)"/><rect class="cls-1" x="39.58" y="83.08" width="5.35" height="5.35" transform="translate(73.01 -4.76) rotate(45)"/><rect class="cls-1" x="43.36" y="86.86" width="5.35" height="5.35" transform="translate(76.79 -6.33) rotate(45)"/><rect class="cls-1" x="28.24" y="101.99" width="5.35" height="5.35" transform="translate(83.06 8.8) rotate(45)"/><rect class="cls-1" x="39.58" y="98.21" width="5.35" height="5.35" transform="translate(83.71 -.33) rotate(45)"/><rect class="cls-1" x="32.02" y="90.64" width="5.35" height="5.35" transform="translate(76.15 2.8) rotate(45)"/><rect class="cls-1" x="47.14" y="90.64" width="5.35" height="5.35" transform="translate(80.58 -7.89) rotate(45)"/></g></g></g></svg>