<svg width="1500" height="1500" viewBox="0 0 1500 1500" fill="none" xmlns="http://www.w3.org/2000/svg">
<path d="M134.011 708.059C134.011 687.033 151.034 670 172.022 670H254.385C275.384 670 292.396 687.044 292.396 708.059V790.525C292.396 811.551 275.373 828.584 254.385 828.584H171.829C150.937 828.584 134 811.626 134 790.708V708.048L134.011 708.059Z" fill="url(#paint0_linear_2598_136094)"/>
<path d="M143.154 712.814C143.154 694.221 158.21 679.146 176.781 679.146H249.644C268.214 679.146 283.27 694.221 283.27 712.814V785.769C283.27 804.362 268.214 819.437 249.644 819.437H176.609C158.124 819.437 143.143 804.438 143.143 785.93V712.804L143.154 712.814Z" fill="black"/>
<path d="M152.287 717.571C152.287 701.398 165.376 688.292 181.529 688.292H244.891C261.044 688.292 274.133 701.398 274.133 717.571V781.013C274.133 797.186 261.044 810.292 244.891 810.292H181.389C165.322 810.292 152.297 797.25 152.297 781.153V717.571H152.287Z" fill="white"/>
<path d="M199.858 755.379C205.823 745.034 204.117 732.867 196.047 728.202C187.977 723.537 176.6 728.141 170.635 738.485C164.67 748.83 166.376 760.997 174.446 765.663C182.516 770.328 193.893 765.723 199.858 755.379Z" fill="black"/>
<path d="M193.473 746.044C196.981 746.044 199.824 743.197 199.824 739.685C199.824 736.173 196.981 733.326 193.473 733.326C189.965 733.326 187.122 736.173 187.122 739.685C187.122 743.197 189.965 746.044 193.473 746.044Z" fill="white"/>
<path d="M252.309 765.749C260.378 761.084 262.085 748.916 256.12 738.571C250.155 728.227 238.777 723.623 230.708 728.288C222.638 732.953 220.931 745.12 226.896 755.465C232.861 765.81 244.239 770.414 252.309 765.749Z" fill="black"/>
<path d="M233.286 746.14C236.793 746.14 239.637 743.293 239.637 739.781C239.637 736.269 236.793 733.422 233.286 733.422C229.778 733.422 226.934 736.269 226.934 739.781C226.934 743.293 229.778 746.14 233.286 746.14Z" fill="white"/>
<path d="M213.376 772.996C213.376 772.996 208.841 772.813 207.218 773.975C205.595 775.138 205.703 776.934 205.703 776.934C205.703 776.934 205.488 778.774 206.025 779.969C206.562 781.163 209.711 780.959 211.259 783.617C211.259 783.617 212.677 784.101 213.376 783.961" fill="black"/>
<path d="M213.376 772.996C213.376 772.996 217.911 772.813 219.534 773.975C221.157 775.137 221.049 776.934 221.049 776.934C221.049 776.934 221.264 778.774 220.727 779.969C220.189 781.163 217.041 780.959 215.493 783.616C215.493 783.616 214.074 784.101 213.376 783.961" fill="black"/>
<path d="M384.59 827.537C415.053 827.537 435.953 807.937 439.29 783.204H406.378C404.378 793.674 396.152 799.686 384.59 799.686C370.353 799.686 359.464 787.437 359.464 769.391C359.464 751.346 370.364 739.536 384.59 739.536C395.928 739.536 404.164 746.223 406.164 756.693H438.852C435.739 729.292 416.165 711.696 384.376 711.696C350.351 711.696 326.338 735.979 326.338 769.391C326.338 802.804 350.576 827.537 384.601 827.537H384.59Z" fill="white"/>
<path d="M506.936 827.535C536.287 827.535 555.411 812.168 559.861 788.325H527.173C524.724 795.676 517.611 800.573 506.712 800.573C493.587 800.573 483.362 792.772 480.698 777.18H560.524C565.862 740.649 543.175 711.684 505.15 711.684C472.238 711.684 448.225 735.741 448.225 769.379C448.225 803.017 470.687 827.524 506.926 827.524L506.936 827.535ZM481.811 753.798C485.148 741.989 492.924 736.202 505.161 736.202C517.397 736.202 526.061 743.328 526.51 753.798H481.811Z" fill="white"/>
<path d="M625.355 829.508C638.479 829.508 650.929 824.161 656.93 815.92V830H689.801L689.842 670H656.93V727.256C650.929 719.015 638.479 713.668 625.355 713.668C592.443 713.668 570.655 735.947 570.655 771.588C570.655 807.23 592.443 829.508 625.355 829.508ZM603.781 771.588C603.781 753.542 614.68 741.508 630.243 741.508C645.806 741.508 656.93 753.542 656.93 771.588C656.93 789.634 646.031 801.668 630.243 801.668C614.455 801.668 603.781 789.42 603.781 771.588Z" fill="white"/>
<path d="M757.039 827.535C786.39 827.535 805.514 812.168 809.964 788.325H777.277C774.827 795.676 767.714 800.573 756.815 800.573C743.69 800.573 733.465 792.772 730.801 777.18H810.627C815.965 740.649 793.278 711.684 755.253 711.684C722.341 711.684 698.328 735.741 698.328 769.379C698.328 803.016 720.79 827.524 757.029 827.524L757.039 827.535ZM731.914 753.798C735.251 741.989 743.027 736.202 755.264 736.202C767.5 736.202 776.164 743.328 776.613 753.798H731.914Z" fill="white"/>
<path d="M924.641 827.735C950.465 827.735 968.942 812.591 968.942 791.658C968.942 746.451 909.058 761.149 909.058 743.11C909.058 738.211 913.955 735.316 920.634 735.316C929.984 735.316 936.663 740.215 938.444 748.455H967.829C964.935 725.963 948.016 711.933 920.634 711.933C895.255 711.933 879.672 726.631 879.672 745.115C879.672 787.204 938.889 773.62 938.889 792.771C938.889 799.007 933.546 802.793 924.641 802.793C913.955 802.793 908.167 797.448 907.054 788.095H877.669C879.004 811.032 896.146 827.735 924.641 827.735Z" fill="#5EA6FF"/>
<path d="M1029.73 827.735C1035.96 827.735 1041.31 826.844 1046.65 824.617V797.225C1042.86 798.561 1037.97 799.23 1034.18 799.23C1025.5 799.23 1019.71 793.885 1019.71 783.418V740.438H1045.31V713.715H1019.71V686.991H986.986V713.715H969.4V740.438H986.986V786.536C986.986 813.259 1005.46 827.735 1029.73 827.735Z" fill="#5EA6FF"/>
<path d="M1108.33 827.735C1142.84 827.735 1168 803.683 1168 769.611C1168 735.761 1143.06 711.933 1108.33 711.933C1073.83 711.933 1048.67 735.761 1048.67 769.611C1048.67 803.461 1073.61 827.735 1108.33 827.735ZM1081.84 769.611C1081.84 751.573 1092.53 739.77 1108.33 739.77C1124.14 739.77 1135.05 751.795 1135.05 769.611C1135.05 787.649 1124.14 799.898 1108.33 799.898C1092.53 799.898 1081.84 787.649 1081.84 769.611Z" fill="#5EA6FF"/>
<path d="M1178.21 825.953H1211.16V784.754C1211.16 754.022 1225.18 742.442 1240.1 742.442C1245.22 742.442 1250.12 743.11 1255.46 745.115V714.16C1251.68 712.378 1247.67 711.933 1242.99 711.933C1230.08 711.933 1217.39 717.723 1211.16 726.408V713.715H1178.21V825.953Z" fill="#5EA6FF"/>
<path d="M1312.57 827.735C1341.96 827.735 1361.11 812.369 1365.56 788.54H1332.83C1330.38 795.889 1323.26 800.788 1312.35 800.788C1299.22 800.788 1288.98 792.994 1286.31 777.405H1366.23C1371.57 740.883 1348.86 711.933 1310.79 711.933C1277.85 711.933 1253.8 735.984 1253.8 769.611C1253.8 803.461 1276.29 827.735 1312.57 827.735ZM1287.42 754.022C1290.76 742.22 1298.55 736.429 1310.79 736.429C1323.48 736.429 1331.72 743.556 1332.16 754.022H1287.42Z" fill="#5EA6FF"/>
<path d="M828.372 813.621C828.372 804.681 835.608 797.434 844.535 797.434C853.461 797.434 860.698 804.681 860.698 813.621C860.698 822.561 853.461 829.809 844.535 829.809C835.608 829.809 828.372 822.561 828.372 813.621Z" fill="#5EA6FF"/>
<defs>
<linearGradient id="paint0_linear_2598_136094" x1="986.378" y1="855.739" x2="986.559" y2="576.776" gradientUnits="userSpaceOnUse">
<stop stop-color="#5EA6FF"/>
<stop offset="1" stop-color="#5EA6FF" stop-opacity="0.4"/>
</linearGradient>
</defs>
</svg>
