<svg width="25" height="25" viewBox="0 0 25 25" fill="none" xmlns="http://www.w3.org/2000/svg">
<path fill-rule="evenodd" clip-rule="evenodd" d="M16.2859 18.7747C16.7996 19.4265 17.416 20.1642 17.416 20.1642C21.2003 20.0441 22.6558 17.5567 22.6558 17.5567C22.6558 12.033 20.19 7.55574 20.19 7.55574C17.7243 5.70307 15.3784 5.75454 15.3784 5.75454L15.1386 6.02901C18.0496 6.92103 19.4023 8.20761 19.4023 8.20761C17.6215 7.22981 15.8749 6.74949 14.2482 6.56079C13.0154 6.42356 11.8338 6.45787 10.7893 6.5951C10.6996 6.5951 10.623 6.60817 10.5366 6.62291C10.524 6.62505 10.5113 6.62723 10.4982 6.62941C9.89891 6.68087 8.44343 6.90388 6.61124 7.71013C5.97768 8.00176 5.60097 8.20761 5.60097 8.20761C5.60097 8.20761 7.0222 6.85242 10.1044 5.96039L9.93316 5.75454C9.93316 5.75454 7.58727 5.70307 5.12152 7.55574C5.12152 7.55574 2.65576 12.033 2.65576 17.5567C2.65576 17.5567 4.09412 20.0441 7.87836 20.1642C7.87836 20.1642 8.51193 19.3922 9.02563 18.7404C6.85097 18.0885 6.02905 16.7162 6.02905 16.7162C6.02905 16.7162 6.20028 16.8362 6.5085 17.0078C6.52562 17.0249 6.54275 17.0421 6.57699 17.0592C6.60268 17.0764 6.62836 17.0893 6.65405 17.1021C6.67973 17.115 6.70542 17.1279 6.7311 17.145C7.15919 17.3852 7.58727 17.5739 7.98111 17.7283C8.68316 18.0027 9.5222 18.2772 10.4982 18.4659C11.7825 18.7061 13.2893 18.7918 14.9332 18.4831C15.738 18.3458 16.5599 18.1057 17.416 17.7454C18.0153 17.5224 18.6832 17.1965 19.3852 16.7333C19.3852 16.7333 18.5291 18.14 16.2859 18.7747ZM7.70711 14.057C7.70711 13.0106 8.47766 12.1528 9.45368 12.1528C10.4297 12.1528 11.2174 13.0106 11.2003 14.057C11.2003 15.1034 10.4297 15.9611 9.45368 15.9611C8.49478 15.9611 7.70711 15.1034 7.70711 14.057ZM13.9571 14.057C13.9571 13.0106 14.7277 12.1528 15.7037 12.1528C16.6797 12.1528 17.4503 13.0106 17.4503 14.057C17.4503 15.1034 16.6797 15.9611 15.7037 15.9611C14.7448 15.9611 13.9571 15.1034 13.9571 14.057Z" fill="#FAF1E7"/>
</svg>
