<svg width="25" height="25" viewBox="0 0 25 25" fill="none" xmlns="http://www.w3.org/2000/svg">
<g clip-path="url(#clip0_7625_89077)">
<path d="M5.26311 11.7929C5.26313 11.6593 5.28955 11.527 5.34083 11.4037C5.39212 11.2803 5.46726 11.1683 5.56197 11.074C5.65669 10.9798 5.76905 10.9052 5.89267 10.8545C6.01629 10.8038 6.14871 10.778 6.28232 10.7786L7.97216 10.7841C8.24157 10.7841 8.49996 10.8912 8.69046 11.0817C8.88099 11.2722 8.98802 11.5306 8.98802 11.8V18.1895C9.17825 18.1331 9.42258 18.0729 9.68993 18.0099C9.87563 17.9663 10.0411 17.8612 10.1596 17.7117C10.278 17.5622 10.3425 17.377 10.3425 17.1862V9.26034C10.3425 8.99089 10.4495 8.7325 10.64 8.54195C10.8305 8.35141 11.0889 8.24433 11.3583 8.24428H13.0515C13.3209 8.24433 13.5793 8.35141 13.7698 8.54195C13.9603 8.7325 14.0674 8.99089 14.0674 9.26034V16.6163C14.0674 16.6163 14.4913 16.4448 14.9042 16.2705C15.0576 16.2056 15.1885 16.097 15.2806 15.9583C15.3727 15.8195 15.4218 15.6567 15.422 15.4901V6.72067C15.422 6.45128 15.529 6.19292 15.7195 6.00242C15.9099 5.81189 16.1683 5.70486 16.4376 5.7048H18.1308C18.4003 5.7048 18.6586 5.81184 18.8492 6.00234C19.0397 6.19285 19.1467 6.45124 19.1467 6.72067V13.9421C20.6146 12.8782 22.1023 11.5988 23.2828 10.0602C23.4541 9.83689 23.5674 9.57466 23.6127 9.29689C23.6579 9.01914 23.6337 8.73449 23.5423 8.46834C22.9958 6.8961 22.1272 5.45524 20.992 4.23799C19.8567 3.02071 18.4798 2.05384 16.9494 1.39925C15.4191 0.744653 13.7689 0.416746 12.1045 0.436512C10.4401 0.456278 8.79821 0.823282 7.28383 1.51404C5.76943 2.20479 4.41591 3.20408 3.30988 4.44797C2.20386 5.69186 1.36968 7.15292 0.860742 8.73771C0.351803 10.3225 0.179307 11.996 0.354291 13.6513C0.529274 15.3066 1.04789 16.9071 1.87693 18.3504C2.02136 18.5994 2.23383 18.802 2.4894 18.9344C2.74496 19.0668 3.033 19.1236 3.3197 19.098C3.63996 19.0698 4.03871 19.0299 4.51281 18.9742C4.71919 18.9508 4.90974 18.8523 5.04813 18.6974C5.18654 18.5425 5.26313 18.3422 5.2633 18.1344L5.26311 11.7929Z" fill="white"/>
<path d="M5.22614 22.0412C7.01085 23.3396 9.12 24.119 11.3202 24.2931C13.5204 24.467 15.7259 24.0291 17.6926 23.0274C19.6593 22.0256 21.3104 20.4995 22.4636 18.6176C23.6166 16.7357 24.2266 14.5715 24.2261 12.3644C24.2261 12.089 24.2133 11.8165 24.195 11.5457C19.824 18.0646 11.7535 21.1123 5.22651 22.0402" fill="#8B8B8B"/>
</g>
<defs>
<clipPath id="clip0_7625_89077">
<rect width="24" height="24" fill="white" transform="translate(0.288025 0.400024)"/>
</clipPath>
</defs>
</svg>
