<svg width="20" height="23" viewBox="0 0 20 23" fill="none" xmlns="http://www.w3.org/2000/svg">
<rect y="2.32581" width="20" height="20" fill="#333A54"/>
<path fill-rule="evenodd" clip-rule="evenodd" d="M18.9455 13.7044L1.0541 18.5006L0.58374 16.7444L18.4751 11.9482L18.9455 13.7044Z" fill="#76A0FC"/>
<ellipse cx="4.42442" cy="12.3258" rx="3.37022" ry="3.3718" fill="#FDCEAA"/>
<ellipse cx="11.8692" cy="12.0892" rx="1.61436" ry="1.61512" fill="#B9AAFD"/>
<ellipse cx="16.0177" cy="10.9806" rx="1.61436" ry="1.61512" fill="#FDCEAA"/>
<ellipse cx="12.7892" cy="7.30555" rx="1.61436" ry="1.61512" fill="#76A0FC"/>
<path d="M9.91582 16.1035L11.894 19.5315H7.93762L9.91582 16.1035Z" fill="#76A0FC"/>
<path d="M3.47605 5.354C3.62141 5.49937 3.8571 5.49937 4.00247 5.354L6.37138 2.98509C6.51675 2.83972 6.51675 2.60404 6.37138 2.45867C6.22601 2.3133 5.99032 2.3133 5.84495 2.45867L3.73926 4.56436L1.63356 2.45867C1.48819 2.3133 1.25251 2.3133 1.10714 2.45867C0.96177 2.60404 0.96177 2.83972 1.10714 2.98509L3.47605 5.354ZM3.36702 0.674194L3.36702 5.09079L4.1115 5.09079L4.1115 0.674194L3.36702 0.674194Z" fill="#76A0FC"/>
</svg>
