<svg width="20" height="21" viewBox="0 0 20 21" fill="none" xmlns="http://www.w3.org/2000/svg">
<g clip-path="url(#clip0_13363_45562)">
<path d="M6.25 11.5758V14.7008C6.25 14.8666 6.31585 15.0255 6.43306 15.1427C6.55027 15.26 6.70924 15.3258 6.875 15.3258H14.4078L17.5 17.8258V7.82581C17.5 7.66005 17.4342 7.50107 17.3169 7.38386C17.1997 7.26665 17.0408 7.20081 16.875 7.20081H13.75" stroke="#76A0FC" stroke-width="1.5" stroke-linecap="round" stroke-linejoin="round"/>
<path d="M5.59219 11.5758L2.5 14.0758V4.07581C2.5 3.91005 2.56585 3.75107 2.68306 3.63386C2.80027 3.51665 2.95924 3.45081 3.125 3.45081H13.125C13.2908 3.45081 13.4497 3.51665 13.5669 3.63386C13.6842 3.75107 13.75 3.91005 13.75 4.07581V10.9508C13.75 11.1166 13.6842 11.2755 13.5669 11.3927C13.4497 11.51 13.2908 11.5758 13.125 11.5758H5.59219Z" stroke="#FDCEAA" stroke-width="1.5" stroke-linecap="round" stroke-linejoin="round"/>
</g>
<defs>
<clipPath id="clip0_13363_45562">
<rect width="20" height="20" fill="white" transform="translate(0 0.325806)"/>
</clipPath>
</defs>
</svg>
