<svg width="20" height="21" viewBox="0 0 20 21" fill="none" xmlns="http://www.w3.org/2000/svg">
<g clip-path="url(#clip0_13099_8983)">
<path d="M13.4712 4.5194L13.4727 7.41519H6.52723V4.52128C6.52771 4.51462 6.52801 4.50898 6.52812 4.50679L6.52813 4.50664L6.52843 4.50065L6.52852 4.49876L6.52855 4.49813L6.52856 4.4979L6.52856 4.49781L6.52857 4.49777L6.52857 4.49775L6.52723 4.49769V4.49768L6.52857 4.49774L6.54491 4.12787C6.72164 2.37551 8.20111 1.00769 10.0001 1.00769C11.8803 1.00769 13.4115 2.50189 13.4711 4.36763L13.4712 4.5194ZM6.52728 4.48739C6.52727 4.48747 6.52725 4.48668 6.52724 4.48484L6.52728 4.48739Z" stroke="#B9AAFD" stroke-width="0.77955"/>
<rect x="3.84266" y="7.417" width="12.3147" height="12.3147" rx="1.61023" stroke="#76A0FC" stroke-width="0.77955"/>
<path d="M10.5883 13.7205C11.0645 13.4982 11.3956 13.0056 11.3956 12.4336C11.3956 11.6532 10.7793 11.0206 10.0191 11.0206C9.25884 11.0206 8.64253 11.6532 8.64253 12.4336C8.64253 12.9854 8.95069 13.4633 9.39998 13.6959L8.60278 16.1708H11.4354L10.5883 13.7205Z" fill="#FDCEAA"/>
</g>
<defs>
<clipPath id="clip0_13099_8983">
<rect width="20" height="20" fill="white" transform="translate(0 0.325806)"/>
</clipPath>
</defs>
</svg>
