<svg width="20" height="21" viewBox="0 0 20 21" fill="none" xmlns="http://www.w3.org/2000/svg">
<rect y="0.674194" width="20" height="20" fill="#333A54"/>
<path d="M16.7657 10.845C16.7657 12.6142 15.3315 14.0484 13.5623 14.0484C11.7931 14.0484 10.3589 12.6142 10.3589 10.845C10.3589 9.07582 11.7931 7.6416 13.5623 7.6416C15.3315 7.6416 16.7657 9.07582 16.7657 10.845Z" stroke="#FDCEAA"/>
<rect x="1.72778" y="5.22876" width="11.1469" height="11.2886" fill="#333A54" stroke="#76A0FC"/>
<rect x="0.428711" y="12.8679" width="0.799135" height="2.55347" fill="#76A0FC"/>
<rect x="0.428711" y="6.32471" width="0.799135" height="2.55347" fill="#76A0FC"/>
<ellipse cx="7.11373" cy="10.6239" rx="3.26265" ry="3.25785" fill="#B9AAFD"/>
<ellipse cx="7.11381" cy="10.6239" rx="1.28252" ry="1.28063" fill="#1F2333"/>
<path d="M17.2164 3.0251C17.2233 2.96657 17.3082 2.96657 17.3152 3.0251L17.3734 3.5161C17.4487 4.15012 17.9485 4.65 18.5826 4.72523L19.0736 4.78349C19.1321 4.79044 19.1321 4.87537 19.0736 4.88232L18.5826 4.94058C17.9485 5.01581 17.4487 5.51569 17.3734 6.1497L17.3152 6.64071C17.3082 6.69924 17.2233 6.69924 17.2164 6.64071L17.1581 6.1497C17.0829 5.51569 16.583 5.01581 15.949 4.94058L15.458 4.88232C15.3994 4.87537 15.3994 4.79044 15.458 4.78349L15.949 4.72523C16.583 4.65 17.0829 4.15012 17.1581 3.5161L17.2164 3.0251Z" fill="#FDCEAA"/>
</svg>
