<svg width="20" height="21" viewBox="0 0 20 21" fill="none" xmlns="http://www.w3.org/2000/svg">
<g clip-path="url(#clip0_13099_8972)">
<path d="M7.5 17.8258H12.5" stroke="#76A0FC" stroke-width="1.5" stroke-linecap="round" stroke-linejoin="round"/>
<path d="M10 14.7008V17.8258" stroke="#76A0FC" stroke-width="1.5" stroke-linecap="round" stroke-linejoin="round"/>
<path d="M4.53125 10.3258H3.75C3.08696 10.3258 2.45107 10.0624 1.98223 9.59357C1.51339 9.12473 1.25 8.48885 1.25 7.82581V6.57581C1.25 6.41005 1.31585 6.25107 1.43306 6.13386C1.55027 6.01665 1.70924 5.95081 1.875 5.95081H4.375" stroke="#76A0FC" stroke-width="1.5" stroke-linecap="round" stroke-linejoin="round"/>
<path d="M15.4688 10.3258H16.25C16.913 10.3258 17.5489 10.0624 18.0178 9.59357C18.4866 9.12473 18.75 8.48885 18.75 7.82581V6.57581C18.75 6.41005 18.6842 6.25107 18.5669 6.13386C18.4497 6.01665 18.2908 5.95081 18.125 5.95081H15.625" stroke="#76A0FC" stroke-width="1.5" stroke-linecap="round" stroke-linejoin="round"/>
<path d="M4.375 4.07581H15.625V9.00549C15.625 12.1071 13.1445 14.6774 10.043 14.7008C9.30068 14.7065 8.5646 14.5652 7.87718 14.285C7.18975 14.0049 6.56458 13.5914 6.03769 13.0686C5.5108 12.5457 5.09262 11.9236 4.80725 11.2384C4.52188 10.5531 4.37498 9.81812 4.375 9.07581V4.07581Z" fill="#FDCEAA"/>
</g>
<defs>
<clipPath id="clip0_13099_8972">
<rect width="20" height="20" fill="white" transform="translate(0 0.325806)"/>
</clipPath>
</defs>
</svg>
