<svg width="20" height="21" viewBox="0 0 20 21" fill="none" xmlns="http://www.w3.org/2000/svg">
<g clip-path="url(#clip0_13363_45512)">
<path d="M10 15.3258C10 14.8285 10.1975 14.3516 10.5492 14C10.9008 13.6484 11.3777 13.4508 11.875 13.4508H15.4852C15.9098 13.4509 16.322 13.3068 16.6541 13.0421C16.9862 12.7774 17.2186 12.4078 17.3133 11.9938C17.4423 11.4253 17.505 10.8439 17.5 10.261C17.4648 6.13441 14.05 2.78441 9.92188 2.82582C7.94632 2.8464 6.05868 3.64565 4.66901 5.04995C3.27934 6.45425 2.49989 8.35016 2.5 10.3258C2.5 13.5922 4.58828 16.0633 7.5 17.0922C7.7827 17.1922 8.08525 17.2229 8.38226 17.1817C8.67927 17.1406 8.96209 17.0288 9.20698 16.8558C9.45186 16.6828 9.65168 16.4535 9.78967 16.1873C9.92766 15.9211 9.99978 15.6257 10 15.3258Z" stroke="#B9AAFD" stroke-width="1.5" stroke-linecap="round" stroke-linejoin="round"/>
<path d="M10 7.04456C10.4315 7.04456 10.7812 6.69478 10.7812 6.26331C10.7812 5.83183 10.4315 5.48206 10 5.48206C9.56853 5.48206 9.21875 5.83183 9.21875 6.26331C9.21875 6.69478 9.56853 7.04456 10 7.04456Z" fill="#FDCEAA"/>
<path d="M6.5625 8.91956C6.99397 8.91956 7.34375 8.56978 7.34375 8.13831C7.34375 7.70683 6.99397 7.35706 6.5625 7.35706C6.13103 7.35706 5.78125 7.70683 5.78125 8.13831C5.78125 8.56978 6.13103 8.91956 6.5625 8.91956Z" fill="#F4837D"/>
<path d="M6.5625 13.2946C6.99397 13.2946 7.34375 12.9448 7.34375 12.5133C7.34375 12.0818 6.99397 11.7321 6.5625 11.7321C6.13103 11.7321 5.78125 12.0818 5.78125 12.5133C5.78125 12.9448 6.13103 13.2946 6.5625 13.2946Z" fill="#76A0FC"/>
<path d="M13.4375 8.91956C13.869 8.91956 14.2188 8.56978 14.2188 8.13831C14.2188 7.70683 13.869 7.35706 13.4375 7.35706C13.006 7.35706 12.6562 7.70683 12.6562 8.13831C12.6562 8.56978 13.006 8.91956 13.4375 8.91956Z" fill="#B9AAFD"/>
</g>
<defs>
<clipPath id="clip0_13363_45512">
<rect width="20" height="20" fill="white" transform="translate(0 0.325806)"/>
</clipPath>
</defs>
</svg>
