<svg width="20" height="21" viewBox="0 0 20 21" fill="none" xmlns="http://www.w3.org/2000/svg">
<g clip-path="url(#clip0_13363_45608)">
<path d="M8.125 7.20081H11.875" stroke="#FDCEAA" stroke-width="1.5" stroke-linecap="round" stroke-linejoin="round"/>
<path d="M17.9367 12.3821L14.5266 4.62268C14.1749 4.27107 13.698 4.07355 13.2008 4.07355C12.7035 4.07355 12.2266 4.27107 11.875 4.62268V13.4508" stroke="#76A0FC" stroke-width="1.5" stroke-linecap="round" stroke-linejoin="round"/>
<path d="M8.12495 13.4508V4.62268C7.77332 4.27107 7.29643 4.07355 6.79917 4.07355C6.30191 4.07355 5.82502 4.27107 5.47339 4.62268L2.06323 12.3821" stroke="#76A0FC" stroke-width="1.5" stroke-linecap="round" stroke-linejoin="round"/>
<path d="M5 16.5758C6.72589 16.5758 8.125 15.1767 8.125 13.4508C8.125 11.7249 6.72589 10.3258 5 10.3258C3.27411 10.3258 1.875 11.7249 1.875 13.4508C1.875 15.1767 3.27411 16.5758 5 16.5758Z" stroke="#B9AAFD" stroke-width="1.5" stroke-linecap="round" stroke-linejoin="round"/>
<path d="M15 16.5758C16.7259 16.5758 18.125 15.1767 18.125 13.4508C18.125 11.7249 16.7259 10.3258 15 10.3258C13.2741 10.3258 11.875 11.7249 11.875 13.4508C11.875 15.1767 13.2741 16.5758 15 16.5758Z" stroke="#B9AAFD" stroke-width="1.5" stroke-linecap="round" stroke-linejoin="round"/>
</g>
<defs>
<clipPath id="clip0_13363_45608">
<rect width="20" height="20" fill="white" transform="translate(0 0.325806)"/>
</clipPath>
</defs>
</svg>
