<svg width="24" height="25" viewBox="0 0 24 25" fill="none" xmlns="http://www.w3.org/2000/svg">
<rect x="2.90015" y="4.7915" width="15.2409" height="19.3447" stroke="#B9AAFD"/>
<rect x="5.85889" y="1.13721" width="15.2409" height="19.3447" stroke="url(#paint0_linear_10290_37244)"/>
<path d="M11.1942 13.4943V13.2473C11.1942 12.8975 11.2628 12.6094 11.4 12.383C11.5441 12.1566 11.7739 11.968 12.0894 11.8171L12.2643 11.7348C12.573 11.5907 12.8097 11.4364 12.9743 11.2717C13.1389 11.1071 13.2212 10.8876 13.2212 10.6132C13.2212 10.4143 13.1698 10.2462 13.0669 10.109C12.9709 9.96498 12.8337 9.85522 12.6553 9.77977C12.477 9.70431 12.2677 9.66658 12.0277 9.66658C11.7807 9.66658 11.5578 9.70774 11.3588 9.79005C11.1668 9.87237 11.0124 9.99584 10.8958 10.1605C10.7861 10.3251 10.7312 10.5309 10.7312 10.7778V11.0042H9.39355V10.7984C9.39355 10.3251 9.51017 9.91696 9.7434 9.57398C9.97662 9.23099 10.2922 8.97033 10.69 8.79198C11.0879 8.60677 11.5338 8.51416 12.0277 8.51416C12.5147 8.51416 12.9469 8.60334 13.3241 8.78169C13.7083 8.96004 14.0101 9.20698 14.2296 9.52253C14.4491 9.83807 14.5589 10.2016 14.5589 10.6132C14.5589 11.0248 14.4834 11.3643 14.3325 11.6319C14.1816 11.8925 13.9895 12.1052 13.7563 12.2698C13.5299 12.4276 13.2967 12.5648 13.0566 12.6814L12.8817 12.7637C12.7582 12.8186 12.6725 12.8872 12.6244 12.9695C12.5764 13.045 12.5524 13.1581 12.5524 13.3091V13.4943H11.1942ZM11.9145 16.0049C11.6401 16.0049 11.4069 15.9157 11.2148 15.7374C11.0296 15.5522 10.937 15.3155 10.937 15.0274C10.937 14.7393 11.0296 14.5061 11.2148 14.3277C11.4069 14.1425 11.6401 14.0499 11.9145 14.0499C12.1957 14.0499 12.4289 14.1425 12.6142 14.3277C12.7994 14.5061 12.892 14.7393 12.892 15.0274C12.892 15.3155 12.7994 15.5522 12.6142 15.7374C12.4289 15.9157 12.1957 16.0049 11.9145 16.0049Z" fill="white"/>
<defs>
<linearGradient id="paint0_linear_10290_37244" x1="5.35901" y1="10.8094" x2="21.5998" y2="10.8094" gradientUnits="userSpaceOnUse">
<stop stop-color="#FAF1E7"/>
<stop offset="0.26021" stop-color="#FDCEAA"/>
<stop offset="0.61201" stop-color="#F4837D"/>
<stop offset="0.9999" stop-color="#B9AAFD"/>
</linearGradient>
</defs>
</svg>
