<svg id="e4RBDUJ08qT1" xmlns="http://www.w3.org/2000/svg" xmlns:xlink="http://www.w3.org/1999/xlink" viewBox="0 0 80 80" shape-rendering="geometricPrecision" text-rendering="geometricPrecision">
<style>
#e4RBDUJ08qT2_tr {animation: e4RBDUJ08qT2_tr__tr 6000ms linear infinite normal forwards}@keyframes e4RBDUJ08qT2_tr__tr { 0% {transform: translate(40px,40px) rotate(-720deg)} 100% {transform: translate(40px,40px) rotate(0deg)}} #e4RBDUJ08qT3_tr {animation: e4RBDUJ08qT3_tr__tr 6000ms linear infinite normal forwards}@keyframes e4RBDUJ08qT3_tr__tr { 0% {transform: translate(40px,40px) rotate(-360deg)} 100% {transform: translate(40px,40px) rotate(0deg)}} #e4RBDUJ08qT4_tr {animation: e4RBDUJ08qT4_tr__tr 6000ms linear infinite normal forwards}@keyframes e4RBDUJ08qT4_tr__tr { 0% {transform: translate(40px,40px) rotate(-360deg)} 33.333333% {transform: translate(40px,40px) rotate(0deg)} 66.666667% {transform: translate(40px,40px) rotate(360deg)} 100% {transform: translate(40px,40px) rotate(720deg)}} #e4RBDUJ08qT5_tr {animation: e4RBDUJ08qT5_tr__tr 6000ms linear infinite normal forwards}@keyframes e4RBDUJ08qT5_tr__tr { 0% {transform: translate(40px,40px) rotate(-1080deg)} 100% {transform: translate(40px,40px) rotate(0deg)}} #e4RBDUJ08qT6_tr {animation: e4RBDUJ08qT6_tr__tr 6000ms linear infinite normal forwards}@keyframes e4RBDUJ08qT6_tr__tr { 0% {transform: translate(40px,40px) rotate(-1080deg);animation-timing-function: cubic-bezier(0.42,0,0.71,0.5)} 50% {transform: translate(40px,40px) rotate(-360deg);animation-timing-function: cubic-bezier(0.29,0.5,0.58,1)} 100% {transform: translate(40px,40px) rotate(360deg)}} #e4RBDUJ08qT7_tr {animation: e4RBDUJ08qT7_tr__tr 6000ms linear infinite normal forwards}@keyframes e4RBDUJ08qT7_tr__tr { 0% {transform: translate(40px,39.9999px) rotate(-720deg)} 100% {transform: translate(40px,39.9999px) rotate(0deg)}}</style>
<g id="e4RBDUJ08qT2_tr" transform="translate(40,40) rotate(-720)"><path d="M76.9358,39.9999c2.2446,0,4.0856,1.8243,3.858,4.0573-.7333,7.1921-3.4061,14.0788-7.7679,19.9075-5.1766,6.9175-12.454,11.9731-20.7434,14.4105-8.2893,2.4373-17.1451,2.1254-25.2424-.8892-6.8228-2.5401-12.7981-6.884-17.30796-12.5344-1.40024-1.7544-.83972-4.2849,1.04766-5.4999v0c1.8873-1.2149,4.3836-.6492,5.8287,1.0682c3.527,4.1914,8.0912,7.4217,13.2678,9.3489c6.4519,2.402,13.5082,2.6506,20.1132.7085s12.4035-5.9704,16.5282-11.4822c3.3093-4.4223,5.3984-9.6087,6.0951-15.0418.2855-2.2264,2.0784-4.0534,4.323-4.0534v0Z" transform="translate(-40.812798,-39.9999)" fill="#fdceaa"/></g><g id="e4RBDUJ08qT3_tr" transform="translate(40,40) rotate(-360)"><path d="M15.5852,65.4107c-1.5871,1.587-4.1787,1.5988-5.59666-.141C5.76116,60.0829,2.8882,53.8998,1.66282,47.2778c-1.472712-7.9586-.49631-16.1767,2.80024-23.5687s8.75814-13.6102,15.66334-17.8331c5.7454-3.51364,12.2653-5.508386,18.9492-5.829837c2.2419-.107822,3.965,1.828067,3.8449,4.069337v0c-.1201,2.24126-2.0402,3.93376-4.2786,4.09962-5.0365.37322-9.933,1.93978-14.2745,4.59488-5.5021,3.3648-9.8538,8.3194-12.4805,14.2094s-3.40473,12.4381-2.23127,18.7796c.92587,5.0036,3.03237,9.6928,6.12027,13.6887c1.3725,1.7761,1.3966,4.3358-.1907,5.923v0Z" transform="translate(-41,-39.999972)" fill="#87dcc9"/></g><g id="e4RBDUJ08qT4_tr" transform="translate(40,40) rotate(-360)"><path d="M9.87398,57.968c-1.94383,1.1222-4.45022.4629-5.36959-1.5847-2.74076-6.1041-3.915406-12.82-3.38504-19.5334.63743-8.0686,3.7077-15.7539,8.80523-22.0409s11.98252-10.87985,19.74542-13.17176c6.459-1.906976,13.273-2.146392,19.8123-.727139c2.1935.476069,3.3569,2.792039,2.6607,4.925909v0c-.6961,2.13376-2.9888,3.27159-5.1937,2.85252-4.9616-.94298-10.0968-.697-14.9776.74401C25.7862,11.2587,20.3003,14.9183,16.2386,19.9278s-6.5081,11.1332-7.016,17.5622c-.40076,5.0728.42023,10.1473,2.3686,14.8062.866,2.0708.2267,4.5496-1.71722,5.6718v0Z" transform="translate(-41,-39.999998)" fill="#e0557e"/></g><g id="e4RBDUJ08qT5_tr" transform="translate(40,40) rotate(-1080)"><path d="M20.3844,10.5631c-1.2875-1.83862-.8491-4.39311,1.1108-5.48739c5.8423-3.26209,12.4305-5.017481,19.1649-5.074287C48.754,-0.06685,56.6782,2.32169,63.3859,6.85152s11.8834,10.98778,14.8434,18.52088c2.4627,6.2678,3.2952,13.0345,2.4513,19.6721-.2831,2.2267-2.4889,3.5875-4.6753,3.0801v0c-2.1866-.5075-3.5201-2.6925-3.2948-4.9258.5069-5.0244-.1858-10.118-2.0467-14.8541-2.3585-6.0023-6.4825-11.148-11.8272-14.7574s-11.6587-5.51258-18.1079-5.45818c-5.0889.04293-10.0731,1.30313-14.5449,3.65018-1.9873,1.0431-4.512.6223-5.7994-1.2162v0Z" transform="translate(-41,-39.999998)" fill="#76a0fc"/></g><g id="e4RBDUJ08qT6_tr" transform="translate(40,40) rotate(-1080)"><path d="M38.4906,4.15157c-.1566-2.23903,1.5348-4.202713,3.7782-4.131398C48.957,0.232786,55.5085,2.12112,61.3103,5.54075C68.2833,9.65063,73.8454,15.779,77.2619,23.1164c3.4164,7.3373,4.5265,15.5384,3.1836,23.5199-1.1173,6.641-3.8892,12.87-8.0315,18.125-1.3894,1.7627-3.9809,1.7931-5.5936.2321v0c-1.6129-1.5611-1.6306-4.1208-.2872-5.9191c3.0224-4.0456,5.0522-8.7685,5.8965-13.7865c1.07-6.3597.1855-12.8943-2.5367-18.7407-2.7223-5.8464-7.1542-10.7295-12.7102-14.0042-4.3842-2.58406-9.3055-4.07073-14.3474-4.36191-2.2408-.12941-4.1882-1.79042-4.3448-4.02942v0Z" transform="translate(-41,-39.999998)" fill="#f4837d"/></g><g id="e4RBDUJ08qT7_tr" transform="translate(40,39.9999) rotate(-720)"><path d="M46.6195,4.50635c.3511-2.21682,2.4409-3.749658,4.6107-3.17557C57.6991,3.04235,63.6579,6.35597,68.5418,10.993c5.8697,5.5731,9.9106,12.7955,11.5888,20.7133s.915,16.1584-2.189,23.6332c-2.5828,6.2195-6.6849,11.6654-11.9033,15.854-1.7503,1.4049-4.2822.8516-5.5024-1.0322v0c-1.2204-1.8838-.6618-4.3819,1.0517-5.8318c3.8551-3.2622,6.8954-7.4074,8.8469-12.107c2.4733-5.9559,3.0815-12.5221,1.7443-18.8309s-4.557-12.0638-9.234-16.5044c-3.6904-3.5039-8.1511-6.0594-12.9983-7.47726-2.1542-.63014-3.6781-2.68671-3.327-4.90359v0Z" transform="translate(-40.999997,-39.999897)" fill="#b9aafd"/></g></svg>
