<svg id="ejRc6V27pwP1" xmlns="http://www.w3.org/2000/svg" xmlns:xlink="http://www.w3.org/1999/xlink" viewBox="0 0 116 104" shape-rendering="geometricPrecision" text-rendering="geometricPrecision">
<style>
#ejRc6V27pwP3 {animation: ejRc6V27pwP3_s_do 10000ms linear infinite alternate forwards}@keyframes ejRc6V27pwP3_s_do { 0% {stroke-dashoffset: 139.5087} 10% {stroke-dashoffset: 139.51;animation-timing-function: cubic-bezier(0.25,0.46,0.45,0.94)} 16% {stroke-dashoffset: 0} 100% {stroke-dashoffset: 0}} #ejRc6V27pwP4_to {animation: ejRc6V27pwP4_to__to 10000ms linear infinite alternate forwards}@keyframes ejRc6V27pwP4_to__to { 0% {transform: translate(85px,62.218651px);animation-timing-function: cubic-bezier(0.25,0.46,0.45,0.94)} 10% {transform: translate(75.68px,62.218651px)} 100% {transform: translate(75.68px,62.218651px)}} #ejRc6V27pwP4 {animation: ejRc6V27pwP4_c_o 10000ms linear infinite alternate forwards}@keyframes ejRc6V27pwP4_c_o { 0% {opacity: 0} 10% {opacity: 1} 100% {opacity: 1}} #ejRc6V27pwP10_to {animation: ejRc6V27pwP10_to__to 10000ms linear infinite alternate forwards}@keyframes ejRc6V27pwP10_to__to { 0% {transform: translate(32.916255px,70px);animation-timing-function: cubic-bezier(0.25,0.46,0.45,0.94)} 4% {transform: translate(32.916255px,70px);animation-timing-function: cubic-bezier(0.25,0.46,0.45,0.94)} 12% {transform: translate(32.916255px,63.26px)} 100% {transform: translate(32.916255px,63.26px)}} #ejRc6V27pwP10 {animation: ejRc6V27pwP10_c_o 10000ms linear infinite alternate forwards}@keyframes ejRc6V27pwP10_c_o { 0% {opacity: 0;animation-timing-function: cubic-bezier(0.25,0.46,0.45,0.94)} 4% {opacity: 0;animation-timing-function: cubic-bezier(0.25,0.46,0.45,0.94)} 12% {opacity: 1} 100% {opacity: 1}} #ejRc6V27pwP11_ts {animation: ejRc6V27pwP11_ts__ts 10000ms linear infinite alternate forwards}@keyframes ejRc6V27pwP11_ts__ts { 0% {transform: translate(32.916px,58.224497px) scale(0,0)} 8% {transform: translate(32.916px,58.224497px) scale(0,0);animation-timing-function: cubic-bezier(0.455,0.03,0.515,0.955)} 13% {transform: translate(32.916px,58.224497px) scale(1,1)} 100% {transform: translate(32.916px,58.224497px) scale(1,1)}} #ejRc6V27pwP12_ts {animation: ejRc6V27pwP12_ts__ts 10000ms linear infinite alternate forwards}@keyframes ejRc6V27pwP12_ts__ts { 0% {transform: translate(32.9161px,68.604301px) scale(0,0)} 8% {transform: translate(32.9161px,68.604301px) scale(0,0);animation-timing-function: cubic-bezier(0.455,0.03,0.515,0.955)} 13% {transform: translate(32.9161px,68.604301px) scale(1,1)} 100% {transform: translate(32.9161px,68.604301px) scale(1,1)}}
</style>
<g><path id="ejRc6V27pwP3" d="M49.7304,34.3231h-12.401629h12.401629v0h-33.6283v-11.041v0l.0075-2.5741c-.005-.1685-.0075-.3379-.0075-.5081c0-9.2862,7.5279-16.81416,16.8141-16.81416s16.8142,7.52796,16.8142,16.81416c0,.1702,0,13.6151,0,14.1232Z" fill="none" stroke="#b9aafd" stroke-width="5" stroke-dashoffset="139.5087" stroke-dasharray="139.5087"/><g id="ejRc6V27pwP4_to" transform="translate(85,62.218651)"><g id="ejRc6V27pwP4" transform="translate(-75.681599,-62.218651)" opacity="0"><path d="M75.6816,74.7948L62.7468,86.802l-2.5869-5.9456L75.6816,66.4497v8.3451Z" fill="#1f2333" stroke="#87dcc9" stroke-linejoin="round"/><path d="M49.8105,74.7924l12.9363,12.006-2.5869-5.942L44.6382,66.4497l5.1723,8.3427Z" fill="none" stroke="#87dcc9" stroke-linejoin="round"/><path d="M75.6816,74.7948L88.6165,86.802l2.5868-5.9456L75.6816,66.4497v8.3451Z" fill="none" stroke="#87dcc9" stroke-linejoin="round"/><path d="M101.553,74.7924L88.6165,86.7984l2.5869-5.942L106.725,66.4497l-5.172,8.3427Z" fill="#1f2333" stroke="#87dcc9" stroke-linejoin="round"/><path d="M44.6384,66.4487L75.6818,37.6353L106.725,66.4487L91.2033,80.8556L75.6816,66.4489L60.1601,80.8555L44.6384,66.4487Z" fill="none" stroke="#fdceaa" stroke-linejoin="round"/></g></g><g id="ejRc6V27pwP10_to" transform="translate(32.916255,70)"><path id="ejRc6V27pwP10" d="M4.67871,35.2695h56.47509v54.9751c0,.8285-.6716,1.5-1.5,1.5h-53.47509c-.82843,0-1.5-.6715-1.5-1.5v-54.9751Z" transform="translate(-32.916255,-63.50705)" opacity="0" fill="#87dcc9" stroke="#87dcc9" stroke-width="9"/></g><g id="ejRc6V27pwP11_ts" transform="translate(32.916,58.224497) scale(0,0)"><circle r="6.42279" transform="translate(0,0.000003)" fill="#1f2333"/></g><g id="ejRc6V27pwP12_ts" transform="translate(32.9161,68.604301) scale(0,0)"><path d="M30.6778,61.9961h4.1568l4.6897,13.2164h-13.2164l4.3699-13.2164Z" transform="translate(-32.9161,-68.604301)" fill="#1f2333"/></g></g></svg>
