<svg fill="none" height="57" width="157" xmlns="http://www.w3.org/2000/svg"><clipPath id="a"><path d="M0 0h157v56H0z" transform="translate(0 .5)"/></clipPath><g clip-path="url(#a)"><path d="M32.47.5h-4.312c0 6.482-5.228 11.748-11.72 11.856l-.203-.002-.204.002C9.54 12.248 4.31 6.982 4.31.5H0c0 5.987 3.276 11.212 8.141 14C3.276 17.29 0 22.514 0 28.5s3.276 11.212 8.141 14C3.276 45.288 0 50.514 0 56.5h4.312c0-6.483 5.23-11.75 11.723-11.856.066 0 .133.003.2.003s.133-.002.2-.003c6.492.106 11.723 5.373 11.723 11.856h4.312c0-5.986-3.276-11.212-8.142-14 4.866-2.788 8.142-8.014 8.142-14s-3.276-11.211-8.142-14c4.866-2.788 8.141-8.013 8.141-14zm-4.312 28c0 6.483-5.23 11.75-11.723 11.856-.067 0-.133-.003-.2-.003s-.134.002-.2.003C9.542 40.25 4.31 34.983 4.31 28.5c0-6.481 5.229-11.747 11.72-11.856l.204.003.204-.003c6.49.109 11.719 5.375 11.719 11.856z" fill="#59c7f2"/><path d="M53.767 28.56c7.16 0 9.889 3.435 9.889 8.14 0 4.707-2.728 8.14-9.89 8.14h-6.522v11.278H44.39V28.561h9.378zm-6.523 2.629v11.023h6.523c5.242 0 7.033-2.204 7.033-5.511 0-3.35-1.79-5.512-7.033-5.512zm36.231 15.432H69.493v.17c0 5.045 2.6 7.165 6.523 7.165 2.6 0 4.774-.89 6.18-1.908l1.023 2.332c-2.003 1.356-4.475 2.12-7.203 2.12-5.585 0-9.294-3.053-9.294-10.303v-1.356c0-7.335 3.369-10.345 8.355-10.345 4.988 0 8.398 3.01 8.398 10.345zm-13.982-2.204h11.212v-.255c0-5.172-2.302-7.122-5.628-7.122-3.282 0-5.584 1.95-5.584 7.122zM87.694 26.44h2.686v23.487c0 3.01 1.108 4.028 2.728 4.028 1.108 0 1.747-.297 2.43-.763l.98 2.332c-.98.636-2.132.975-3.666.975-2.898 0-5.158-1.739-5.158-6.614V26.441zm26.981 20.18h-13.982v.17c0 5.045 2.601 7.165 6.523 7.165 2.599 0 4.774-.89 6.181-1.908l1.022 2.332c-2.003 1.356-4.475 2.12-7.203 2.12-5.585 0-9.293-3.053-9.293-10.303V44.84c0-7.335 3.368-10.345 8.354-10.345 4.988 0 8.398 3.01 8.398 10.345zm-13.982-2.204h11.212v-.255c0-5.172-2.302-7.122-5.628-7.122-3.282 0-5.584 1.95-5.584 7.122zm17.987-8.225c1.28-.764 3.667-1.696 6.608-1.696 1.62 0 3.069.297 4.22.89l-1.151 2.374c-.81-.466-1.79-.72-3.069-.72-1.748 0-3.112.55-3.922.89v18.188h-2.686V36.192zm14.876-9.92c1.022 0 1.79.763 1.79 1.822a1.77 1.77 0 0 1-1.79 1.781c-1.024 0-1.834-.806-1.834-1.78 0-1.06.81-1.823 1.834-1.823zm-1.365 8.648h2.686v21.198h-2.686V34.92zm8.099 1.272c1.449-.806 3.879-1.696 7.46-1.696 5.371 0 9.25 2.968 9.25 10.43v11.192h-2.686v-11.32c0-5.808-2.685-7.758-6.692-7.758-2.174 0-3.496.424-4.647.89v18.188h-2.685V36.192zM44.386.5h2.572l5.366 9.023L57.662.5h2.573v17.88h-2.379V4.682l-5.532 9.436-5.56-9.436v13.7h-2.378zM63.72.5h2.268v4.126h5.531v2.146h-5.531v6.905c0 1.788.691 2.53 1.77 2.723a5.36 5.36 0 0 0 1.328 0c1.078-.082 2.019-.468 2.683-1.1.248.66.497 1.293.774 1.953-1.107.908-2.545 1.375-4.149 1.375-2.683 0-4.674-1.293-4.674-4.951z" fill="#fff"/></g></svg>