<svg width="437" height="82" viewBox="0 0 437 82" fill="none" xmlns="http://www.w3.org/2000/svg">
<path fill-rule="evenodd" clip-rule="evenodd" d="M78.4024 39.0781C86.6014 34.3444 91.3851 25.351 90.7276 15.9064L51.7375 38.4173L50.7273 23.9063L12.3853 46.0431C4.18616 50.7769 -0.597464 59.7702 0.0600447 69.2149L39.0501 46.7039L40.0603 61.2149L78.4024 39.0781Z" fill="#B1A7EB"/>
<path d="M134.64 65.7841C146.489 65.7841 158.689 57.5335 158.689 42.0855C158.689 26.6376 146.489 18.3869 134.64 18.3869C122.702 18.3869 110.59 26.6376 110.59 42.0855C110.59 57.5335 122.702 65.7841 134.64 65.7841ZM122.176 42.0855C122.176 33.9227 128.057 29.0074 134.64 29.0074C141.222 29.0074 147.015 33.9227 147.015 42.0855C147.015 50.2484 141.222 55.1636 134.64 55.1636C128.057 55.1636 122.176 50.2484 122.176 42.0855Z" fill="#FFF"/>
<path d="M166.379 16.2804V19.2647H160.586V28.6563H166.379V64.9064H178.14V28.6563H189.902V19.2647H178.14V17.597C178.14 13.1206 180.335 10.6629 184.811 10.6629C185.601 10.6629 187.708 10.5752 189.902 11.6284V2.41232C187.357 0.92018 184.109 0.65686 181.739 0.65686C175.683 0.65686 166.379 2.85118 166.379 16.2804Z" fill="#FFF"/>
<path d="M198.224 16.2804V19.2647H192.431V28.6563H198.224V64.9064H209.985V28.6563H221.747V19.2647H209.985V17.597C209.985 13.1206 212.18 10.6629 216.656 10.6629C217.446 10.6629 219.553 10.5752 221.747 11.6284V2.41232C219.202 0.92018 215.954 0.65686 213.584 0.65686C207.528 0.65686 198.224 2.85118 198.224 16.2804Z" fill="#FFF"/>
<path d="M224.948 64.9064H236.709V44.982C236.709 35.8537 242.239 29.7096 251.104 29.7096C252.157 29.7096 253.035 29.7974 254.088 29.9729V18.738C253.035 18.4747 252.07 18.3869 251.016 18.3869C242.766 18.3869 238.289 24.0921 236.709 31.114V19.2647H224.948V64.9064Z" fill="#FFF"/>
<path d="M277.485 65.7841C285.648 65.7841 290.914 61.3077 292.055 58.7623H292.318V64.9064H304.08V19.2647H292.318V25.4087H292.055C290.914 22.8633 285.648 18.3869 277.485 18.3869C266.864 18.3869 255.542 26.2865 255.542 42.0855C255.542 57.8846 266.864 65.7841 277.485 65.7841ZM267.127 42.0855C267.127 33.5716 273.272 28.9196 279.855 28.9196C286.437 28.9196 292.582 33.4838 292.582 42.0855C292.582 50.6872 286.437 55.2514 279.855 55.2514C273.272 55.2514 267.127 50.5995 267.127 42.0855Z" fill="#FFF"/>
<path d="M340.32 64.9064H352.081V38.9257C352.081 32.4305 355.768 28.9196 360.946 28.9196C366.037 28.9196 369.372 32.4305 369.372 38.9257V64.9064H381.222V38.3991C381.222 24.4432 374.2 18.3869 364.545 18.3869C357.084 18.3869 352.081 21.8101 349.448 26.0231C346.639 20.7568 341.724 18.3869 336.106 18.3869C329.699 18.3869 325.486 21.2834 323.028 25.1454V19.2647H311.267V64.9064H323.028V38.9257C323.028 32.4305 326.715 28.9196 331.893 28.9196C336.896 28.9196 340.32 32.4305 340.32 38.9257V64.9064Z" fill="#FFF"/>
<path d="M388.37 81.5832H400.131V58.7623H400.394C401.535 61.3077 406.802 65.7841 414.965 65.7841C425.585 65.7841 436.908 57.8846 436.908 42.0855C436.908 26.2865 425.585 18.3869 414.965 18.3869C406.802 18.3869 401.535 22.8633 400.394 25.4087H400.131V19.2647H388.37V81.5832ZM399.868 42.0855C399.868 33.4838 406.012 28.9196 412.595 28.9196C419.178 28.9196 425.322 33.5716 425.322 42.0855C425.322 50.5995 419.178 55.2514 412.595 55.2514C406.012 55.2514 399.868 50.6872 399.868 42.0855Z" fill="#FFF"/>
</svg>
