<svg width="23" height="23" viewBox="0 0 23 23" fill="none" xmlns="http://www.w3.org/2000/svg">
<circle cx="11.5" cy="11.5" r="10.5" stroke="url(#paint0_linear_12872_25491)" stroke-width="2"/>
<path d="M10.8036 13.4286V13.0769C10.8036 12.7106 10.8671 12.4139 10.994 12.1868C11.1276 11.9524 11.348 11.7582 11.6553 11.6044L11.8457 11.5055C12.1597 11.3443 12.4001 11.1722 12.5671 10.989C12.7341 10.7985 12.8176 10.5458 12.8176 10.2308C12.8176 9.99634 12.7642 9.79853 12.6573 9.63736C12.5504 9.46886 12.4001 9.34066 12.2064 9.25275C12.0194 9.16484 11.8023 9.12088 11.5551 9.12088C11.2946 9.12088 11.0608 9.1685 10.8537 9.26374C10.6533 9.35897 10.4896 9.50183 10.3627 9.69231C10.2425 9.87546 10.1824 10.1099 10.1824 10.3956V10.6813H9V10.4176C9 9.91209 9.11022 9.47985 9.33066 9.12088C9.55778 8.75458 9.86506 8.47619 10.2525 8.28571C10.6399 8.09524 11.0741 8 11.5551 8C12.0294 8 12.4502 8.09524 12.8176 8.28571C13.185 8.47619 13.4723 8.73993 13.6794 9.07692C13.8931 9.40659 14 9.79121 14 10.2308C14 10.663 13.9265 11.0183 13.7796 11.2967C13.6393 11.5751 13.4556 11.8022 13.2285 11.978C13.0013 12.1538 12.7675 12.304 12.5271 12.4286L12.3267 12.5275C12.2064 12.5861 12.1229 12.6593 12.0762 12.7473C12.0294 12.8352 12.006 12.9597 12.006 13.1209V13.4286H10.8036ZM11.4349 16C11.1877 16 10.9773 15.9121 10.8036 15.7363C10.6366 15.5531 10.5531 15.3187 10.5531 15.033C10.5531 14.7473 10.6366 14.5128 10.8036 14.3297C10.9773 14.1465 11.1877 14.0549 11.4349 14.0549C11.6887 14.0549 11.8991 14.1465 12.0661 14.3297C12.2398 14.5128 12.3267 14.7473 12.3267 15.033C12.3267 15.3187 12.2398 15.5531 12.0661 15.7363C11.8991 15.9121 11.6887 16 11.4349 16Z" fill="#FDCEAA"/>
<defs>
<linearGradient id="paint0_linear_12872_25491" x1="23" y1="6.18823" x2="0.179348" y2="17.8984" gradientUnits="userSpaceOnUse">
<stop stop-color="#76A0FC"/>
<stop offset="0.335" stop-color="#B9AAFD"/>
<stop offset="1" stop-color="#FDCEAA"/>
</linearGradient>
</defs>
</svg>
