<?xml version="1.0" encoding="utf-8"?>
<!-- Generator: Adobe Illustrator 27.1.1, SVG Export Plug-In . SVG Version: 6.00 Build 0)  -->
<svg version="1.1" id="Layer_1" xmlns="http://www.w3.org/2000/svg" xmlns:xlink="http://www.w3.org/1999/xlink" x="0px" y="0px"
	 viewBox="0 0 160 50" style="enable-background:new 0 0 160 50;" xml:space="preserve">
<style type="text/css">
	.st0{fill:url(#SVGID_1_);}
	.st1{fill:url(#SVGID_00000083787636944562392610000005382771707678265743_);}
	.st2{fill:url(#SVGID_00000146494142678624844960000001851343424893630865_);}
	.st3{fill:url(#SVGID_00000134966947718899811940000008809318569737464991_);}
	.st4{fill:url(#SVGID_00000041284659497923979890000003208305871095745664_);}
	.st5{fill:url(#SVGID_00000169546727227982626260000016281454557721741185_);}
	.st6{fill:url(#SVGID_00000018216533352500395580000002937774995429813894_);}
	.st7{fill:url(#SVGID_00000148622631015355111470000004896554967372349606_);}
	.st8{fill:url(#SVGID_00000171689288636825490410000011707203677178728114_);}
	.st9{fill:url(#SVGID_00000070076822094816685370000016340631962810146471_);}
</style>
<g>
	<g>
		
			<linearGradient id="SVGID_1_" gradientUnits="userSpaceOnUse" x1="0.2851" y1="38.3251" x2="24.5633" y2="-0.7406" gradientTransform="matrix(1 0 0 -1 0 52)">
			<stop  offset="0" style="stop-color:#AB00FF"/>
			<stop  offset="1" style="stop-color:#6200FF"/>
		</linearGradient>
		<path class="st0" d="M9.4,25c0-0.7,0.1-1.4,0.2-2.1H5.1C5,23.6,5,24.3,5,25c0,0.7,0,1.4,0.1,2.1h4.4C9.5,26.4,9.4,25.7,9.4,25z"/>
		
			<linearGradient id="SVGID_00000040544431548071090810000005214759578450780084_" gradientUnits="userSpaceOnUse" x1="26.5099" y1="54.623" x2="50.7881" y2="15.5573" gradientTransform="matrix(1 0 0 -1 0 52)">
			<stop  offset="0" style="stop-color:#AB00FF"/>
			<stop  offset="1" style="stop-color:#6200FF"/>
		</linearGradient>
		<path style="fill:url(#SVGID_00000040544431548071090810000005214759578450780084_);" d="M45.9,22.9h-4.4c0.1,0.7,0.2,1.4,0.2,2.1
			c0,0.7-0.1,1.4-0.2,2.1h4.4C46,26.4,46,25.7,46,25C46,24.3,46,23.6,45.9,22.9z"/>
		
			<linearGradient id="SVGID_00000032620406041732568590000002995633741063795092_" gradientUnits="userSpaceOnUse" x1="16.2187" y1="48.2273" x2="40.4968" y2="9.1616" gradientTransform="matrix(1 0 0 -1 0 52)">
			<stop  offset="0" style="stop-color:#AB00FF"/>
			<stop  offset="1" style="stop-color:#6200FF"/>
		</linearGradient>
		<path style="fill:url(#SVGID_00000032620406041732568590000002995633741063795092_);" d="M25.5,8.9c7,0,12.9,4.4,15.1,10.6h4.6
			c-2.4-8.6-10.3-15-19.7-15s-17.3,6.3-19.7,15h4.6C12.6,13.3,18.5,8.9,25.5,8.9z"/>
		
			<linearGradient id="SVGID_00000070084034491623528120000005679412455700441013_" gradientUnits="userSpaceOnUse" x1="10.5765" y1="44.7209" x2="34.8546" y2="5.6551" gradientTransform="matrix(1 0 0 -1 0 52)">
			<stop  offset="0" style="stop-color:#AB00FF"/>
			<stop  offset="1" style="stop-color:#6200FF"/>
		</linearGradient>
		<path style="fill:url(#SVGID_00000070084034491623528120000005679412455700441013_);" d="M25.5,41.1c-7,0-12.9-4.4-15.1-10.6H5.8
			c2.4,8.6,10.3,15,19.7,15c9.4,0,17.3-6.3,19.7-15h-4.6C38.4,36.7,32.5,41.1,25.5,41.1z"/>
	</g>
	<g>
		<g>
			
				<linearGradient id="SVGID_00000052081486258969341340000002898568070720196013_" gradientUnits="userSpaceOnUse" x1="78.2873" y1="-3.3184" x2="134.6575" y2="53.0517">
				<stop  offset="0" style="stop-color:#AB00FF"/>
				<stop  offset="1" style="stop-color:#6200FF"/>
			</linearGradient>
			<path style="fill:url(#SVGID_00000052081486258969341340000002898568070720196013_);" d="M66.5,35.4h-7.8c-0.6,0-0.8-0.3-0.8-0.9
				v-2.6c0-0.3,0.1-0.5,0.2-0.6c0.1-0.1,0.3-0.2,0.7-0.2h6.9c1.3,0,2-0.4,2-1.2v-0.2c0-0.7-0.6-1.3-1.7-1.9l-4.1-2.3
				c-1.4-0.7-2.4-1.5-3.1-2.3c-0.7-0.8-1-1.9-1-3.2c0-1.9,0.5-3.3,1.5-4.2s2.6-1.4,4.8-1.4h6.9c0.5,0,0.8,0.3,0.8,0.9v2.7
				c0,0.3-0.1,0.5-0.2,0.6s-0.3,0.2-0.7,0.2h-5.7c-1.3,0-2,0.3-2,1V20c0,0.6,0.6,1.2,1.8,1.9l4.2,2.5c1.4,0.8,2.4,1.6,3,2.4
				c0.6,0.8,0.9,1.9,0.9,3.2C73,33.5,70.8,35.4,66.5,35.4z"/>
			
				<linearGradient id="SVGID_00000003107437366767675390000010459834354939313839_" gradientUnits="userSpaceOnUse" x1="78.2873" y1="-3.3184" x2="134.6575" y2="53.0517">
				<stop  offset="0" style="stop-color:#AB00FF"/>
				<stop  offset="1" style="stop-color:#6200FF"/>
			</linearGradient>
			<path style="fill:url(#SVGID_00000003107437366767675390000010459834354939313839_);" d="M85.2,30.8h-1.6c-0.9,0-1.5-0.2-1.9-0.6
				c-0.4-0.4-0.6-1-0.6-1.8v-9.1c0-0.3,0.2-0.5,0.5-0.5h3.2c0.3,0,0.6-0.1,0.7-0.2c0.1-0.1,0.2-0.3,0.2-0.6v-2.8
				c0-0.6-0.3-0.9-0.9-0.9h-3.2c-0.3,0-0.5-0.2-0.5-0.5V8.7c0-0.6-0.3-0.9-0.9-0.9h-3.5c-0.6,0-0.9,0.3-0.9,0.9v5.2v5.4v9.4
				c0,2.1,0.6,3.8,1.8,4.9c1.2,1.2,2.9,1.7,5.1,1.7h2.5c0.3,0,0.6-0.1,0.7-0.2c0.1-0.1,0.2-0.3,0.2-0.6v-2.8
				C86.1,31.1,85.8,30.8,85.2,30.8z"/>
			
				<linearGradient id="SVGID_00000132070735902370532030000000752001565958161812_" gradientUnits="userSpaceOnUse" x1="78.2873" y1="-3.3184" x2="134.6575" y2="53.0517">
				<stop  offset="0" style="stop-color:#AB00FF"/>
				<stop  offset="1" style="stop-color:#6200FF"/>
			</linearGradient>
			<path style="fill:url(#SVGID_00000132070735902370532030000000752001565958161812_);" d="M96.3,35.4h-1c-2.2,0-3.8-0.6-5-1.7
				c-1.2-1.2-1.8-2.8-1.8-5v-7.6c0-2.2,0.6-3.8,1.8-5c1.2-1.2,2.9-1.7,5-1.7h9.5c0.6,0,0.9,0.3,0.9,0.9v19.3c0,0.6-0.3,0.9-0.9,0.9
				h-3.5c-0.6,0-0.9-0.3-0.9-0.9v-1.4h-0.2c-0.3,0.7-0.8,1.3-1.6,1.7C98,35.2,97.2,35.4,96.3,35.4z M100.5,27.7v-8.4
				c0-0.3-0.2-0.5-0.5-0.5h-3.9c-0.9,0-1.5,0.2-1.9,0.6c-0.4,0.4-0.5,1-0.5,1.9v7.1c0,0.9,0.2,1.5,0.5,1.9c0.4,0.4,1,0.6,1.9,0.6
				h1.5C99.6,30.8,100.5,29.8,100.5,27.7z"/>
			
				<linearGradient id="SVGID_00000172416240221790484540000008079253246064776851_" gradientUnits="userSpaceOnUse" x1="78.2873" y1="-3.3184" x2="134.6575" y2="53.0517">
				<stop  offset="0" style="stop-color:#AB00FF"/>
				<stop  offset="1" style="stop-color:#6200FF"/>
			</linearGradient>
			<path style="fill:url(#SVGID_00000172416240221790484540000008079253246064776851_);" d="M108.6,34.5V8.7c0-0.6,0.3-0.9,0.9-0.9
				h3.5c0.6,0,0.9,0.3,0.9,0.9v7.8h0.2c0.3-0.7,0.8-1.3,1.6-1.7c0.8-0.4,1.6-0.6,2.4-0.6h1.3c2.2,0,3.8,0.6,5,1.7
				c1.2,1.2,1.8,2.8,1.8,5v7.7c0,2.2-0.6,3.8-1.8,5c-1.2,1.2-2.9,1.7-5,1.7h-9.9C108.9,35.4,108.6,35.1,108.6,34.5z M114.3,30.8h4.2
				c0.9,0,1.5-0.2,1.9-0.6c0.4-0.4,0.6-1,0.6-1.9v-7.2c0-0.9-0.2-1.5-0.6-1.9c-0.4-0.4-1-0.6-1.9-0.6h-1.8c-1.9,0-2.8,1-2.8,3.1v8.5
				C113.8,30.7,114,30.8,114.3,30.8z"/>
			
				<linearGradient id="SVGID_00000137101388949480954680000006921911421831573393_" gradientUnits="userSpaceOnUse" x1="78.2873" y1="-3.3184" x2="134.6575" y2="53.0517">
				<stop  offset="0" style="stop-color:#AB00FF"/>
				<stop  offset="1" style="stop-color:#6200FF"/>
			</linearGradient>
			<path style="fill:url(#SVGID_00000137101388949480954680000006921911421831573393_);" d="M133.4,35.4h-3.5
				c-0.6,0-0.9-0.3-0.9-0.9V8.7c0-0.6,0.3-0.9,0.9-0.9h3.5c0.6,0,0.9,0.3,0.9,0.9v25.8C134.2,35.1,133.9,35.4,133.4,35.4z"/>
			<g>
				
					<linearGradient id="SVGID_00000044135497518609861950000003773207344747860657_" gradientUnits="userSpaceOnUse" x1="78.2873" y1="-3.3184" x2="134.6575" y2="53.0517">
					<stop  offset="0" style="stop-color:#AB00FF"/>
					<stop  offset="1" style="stop-color:#6200FF"/>
				</linearGradient>
				<path style="fill:url(#SVGID_00000044135497518609861950000003773207344747860657_);" d="M154.1,14.3h-3.5c-0.6,0-0.9,0.3-1,0.9
					l-3.5,15.2H146l-3.5-15.2c-0.1-0.6-0.5-0.9-1-0.9h-3.7c-0.6,0-0.8,0.3-0.6,0.9l4.2,15.9l0.2,0.8c0.3,1.1,1.1,1.9,2.2,2.2l0,0
					c0.3,0.1,0.6,0.1,0.9,0.1h0.6c-0.3,1.4-0.8,2.3-1.4,2.8c-0.6,0.5-1.8,0.7-3.5,0.7h-0.9c-0.5,0-0.8,0.3-0.8,0.9v2.8
					c0,0.6,0.3,0.9,0.8,0.9h2.6c2.2,0,3.9-0.6,5.2-1.8c1.3-1.2,2.2-2.9,2.8-5.2l5-20.1C155.1,14.6,154.8,14.3,154.1,14.3z"/>
			</g>
		</g>
	</g>
</g>
</svg>
