<svg width="18" height="19" viewBox="0 0 18 19" fill="none" xmlns="http://www.w3.org/2000/svg">
<path d="M11.25 1.59808H4.5C3.8775 1.59808 3.345 1.97308 3.12 2.51308L0.855 7.80058C0.7875 7.97308 0.75 8.15308 0.75 8.34808V9.84808C0.75 10.6731 1.425 11.3481 2.25 11.3481H6.9825L6.27 14.7756L6.2475 15.0156C6.2475 15.3231 6.375 15.6081 6.5775 15.8106L7.3725 16.5981L12.3075 11.6556C12.585 11.3856 12.75 11.0106 12.75 10.5981V3.09808C12.75 2.27308 12.075 1.59808 11.25 1.59808ZM11.25 10.5981L7.995 13.8531L8.8275 9.84808H2.25V8.34808L4.5 3.09808H11.25V10.5981ZM14.25 1.59808H17.25V10.5981H14.25V1.59808Z" fill="url(#paint0_linear_10288_36473)"/>
<defs>
<linearGradient id="paint0_linear_10288_36473" x1="16.1346" y1="5.20113" x2="2.30991" y2="14.7248" gradientUnits="userSpaceOnUse">
<stop stop-color="#FDCEAA"/>
<stop offset="1" stop-color="#FAF1E7"/>
</linearGradient>
</defs>
</svg>
