<svg width="15" height="16" viewBox="0 0 15 16" fill="none" xmlns="http://www.w3.org/2000/svg">
<circle cx="7.5" cy="8" r="7.5" fill="#454E71"/>
<path d="M6.73549 9.43009V9.07809C6.73549 8.71143 6.80516 8.41443 6.94449 8.18709C7.09116 7.95243 7.33316 7.75809 7.67049 7.60409L7.87949 7.50509C8.22416 7.34376 8.48816 7.17143 8.67149 6.98809C8.85483 6.79743 8.94649 6.54443 8.94649 6.22909C8.94649 5.99443 8.88783 5.79643 8.77049 5.63509C8.65316 5.46643 8.48816 5.33809 8.27549 5.25009C8.07016 5.16209 7.83183 5.11809 7.56049 5.11809C7.27449 5.11809 7.01783 5.16576 6.79049 5.26109C6.57049 5.35643 6.39083 5.49943 6.25149 5.69009C6.11949 5.87343 6.05349 6.10809 6.05349 6.39409V6.68009H4.75549V6.41609C4.75549 5.91009 4.87649 5.47743 5.11849 5.11809C5.36783 4.75143 5.70516 4.47276 6.13049 4.28209C6.55583 4.09143 7.03249 3.99609 7.56049 3.99609C8.08116 3.99609 8.54316 4.09143 8.94649 4.28209C9.34983 4.47276 9.66516 4.73676 9.89249 5.07409C10.1272 5.40409 10.2445 5.78909 10.2445 6.22909C10.2445 6.66176 10.1638 7.01743 10.0025 7.29609C9.84849 7.57476 9.64683 7.80209 9.39749 7.97809C9.14816 8.15409 8.89149 8.30443 8.62749 8.42909L8.40749 8.52809C8.27549 8.58676 8.18383 8.66009 8.13249 8.74809C8.08116 8.83609 8.05549 8.96076 8.05549 9.12209V9.43009H6.73549ZM7.42849 12.0041C7.15716 12.0041 6.92616 11.9161 6.73549 11.7401C6.55216 11.5568 6.46049 11.3221 6.46049 11.0361C6.46049 10.7501 6.55216 10.5154 6.73549 10.3321C6.92616 10.1488 7.15716 10.0571 7.42849 10.0571C7.70716 10.0571 7.93816 10.1488 8.12149 10.3321C8.31216 10.5154 8.40749 10.7501 8.40749 11.0361C8.40749 11.3221 8.31216 11.5568 8.12149 11.7401C7.93816 11.9161 7.70716 12.0041 7.42849 12.0041Z" fill="#FDCEAA"/>
</svg>
