<svg id="eMDSoFk0Jzl1" xmlns="http://www.w3.org/2000/svg" xmlns:xlink="http://www.w3.org/1999/xlink" viewBox="0 0 89 112" shape-rendering="geometricPrecision" text-rendering="geometricPrecision">
<style>
#eMDSoFk0Jzl3 {animation-name: eMDSoFk0Jzl3_f_p, eMDSoFk0Jzl3_f_o;animation-duration: 10000ms;animation-fill-mode: forwards;animation-timing-function: linear;animation-direction: alternate;animation-iteration-count: infinite;}@keyframes eMDSoFk0Jzl3_f_p { 0% {fill: #fdceaa} 18% {fill: #fdceaa} 23% {fill: #87dcc9} 100% {fill: #87dcc9}}@keyframes eMDSoFk0Jzl3_f_o { 0% {fill-opacity: 0} 16% {fill-opacity: 0} 21% {fill-opacity: 1} 100% {fill-opacity: 1}} #eMDSoFk0Jzl4 {animation: eMDSoFk0Jzl4_s_do 10000ms linear infinite alternate forwards}@keyframes eMDSoFk0Jzl4_s_do { 0% {stroke-dashoffset: 284.08;animation-timing-function: cubic-bezier(0.77,0,0.175,1)} 12% {stroke-dashoffset: 0} 100% {stroke-dashoffset: 0}} #eMDSoFk0Jzl5 {animation: eMDSoFk0Jzl5_s_do 10000ms linear infinite alternate forwards}@keyframes eMDSoFk0Jzl5_s_do { 0% {stroke-dashoffset: 199.71;animation-timing-function: cubic-bezier(0.77,0,0.175,1)} 9% {stroke-dashoffset: 0} 100% {stroke-dashoffset: 0}} #eMDSoFk0Jzl6 {animation: eMDSoFk0Jzl6_s_do 10000ms linear infinite alternate forwards}@keyframes eMDSoFk0Jzl6_s_do { 0% {stroke-dashoffset: 190.99242;animation-timing-function: cubic-bezier(0.77,0,0.175,1)} 9% {stroke-dashoffset: 0} 100% {stroke-dashoffset: 0}} #eMDSoFk0Jzl7_ts {animation: eMDSoFk0Jzl7_ts__ts 10000ms linear infinite alternate forwards}@keyframes eMDSoFk0Jzl7_ts__ts { 0% {transform: translate(44.6423px,0px) scale(1,0)} 13% {transform: translate(44.6423px,0px) scale(1,0)} 17% {transform: translate(44.6423px,0px) scale(1,1)} 100% {transform: translate(44.6423px,0px) scale(1,1)}} #eMDSoFk0Jzl8_ts {animation: eMDSoFk0Jzl8_ts__ts 10000ms linear infinite alternate forwards}@keyframes eMDSoFk0Jzl8_ts__ts { 0% {transform: translate(44.642351px,27.491199px) scale(0,1)} 9% {transform: translate(44.642351px,27.491199px) scale(0,1);animation-timing-function: cubic-bezier(0.455,0.03,0.515,0.955)} 13% {transform: translate(44.642351px,27.491199px) scale(1,1)} 100% {transform: translate(44.642351px,27.491199px) scale(1,1)}}
</style>
<g><path id="eMDSoFk0Jzl3" d="M11.185,79.8037L7.07224,66.8928h3.48806L13.5537,77.409h.4686l2.9934-10.5162h3.488L16.391,79.8037h-5.206Zm17.8612.3644c-1.2841,0-2.4381-.2603-3.462-.7809-1.0238-.5206-1.8307-1.2754-2.4207-2.2646s-.8851-2.1778-.8851-3.5661v-.4165c0-1.3882.295-2.5769.8851-3.5661.59-.9891,1.3969-1.744,2.4207-2.2646c1.0239-.5206,2.1779-.7809,3.462-.7809c1.2842,0,2.4382.2603,3.462.7809s1.8308,1.2755,2.4208,2.2646c.59.9892.885,2.1779.885,3.5661v.4165c0,1.3883-.295,2.577-.885,3.5661s-1.3969,1.744-2.4208,2.2646-2.1778.7809-3.462.7809Zm0-2.9153c1.0065,0,1.8395-.3211,2.4989-.9631.6594-.6595.9892-1.5965.9892-2.8113v-.2603c0-1.2147-.3298-2.1431-.9892-2.7852-.6421-.6594-1.475-.9891-2.4989-.9891-1.0065,0-1.8394.3297-2.4988.9891-.6595.6421-.9892,1.5705-.9892,2.7852v.2603c0,1.2148.3297,2.1518.9892,2.8113.6594.642,1.4923.9631,2.4988.9631ZM43.901,79.8037c-.8503,0-1.5444-.2603-2.0824-.7809-.5206-.5379-.7809-1.2494-.7809-2.1344v-7.2884h-3.2277v-2.7072h3.2277v-4.0086h3.2798v4.0086h3.5401v2.7072h-3.5401v6.7157c0,.5206.243.7809.7289.7809h2.4988v2.7071h-3.6442Zm12.8713.3644c-1.2842,0-2.4208-.2689-3.41-.8069-.9718-.5553-1.7353-1.3275-2.2906-2.3167-.538-1.0065-.8069-2.1865-.8069-3.54v-.3124c0-1.3536.2689-2.5249.8069-3.5141.5379-1.0065,1.2928-1.7787,2.2646-2.3166.9718-.5553,2.0998-.833,3.3839-.833c1.2668,0,2.3687.2863,3.3058.859.9371.5553,1.6659,1.3362,2.1865,2.3427.5206.9891.7809,2.1431.7809,3.462v1.1193h-9.3968c.0347.885.3644,1.6052.9891,2.1605s1.3883.8329,2.2907.8329c.9197,0,1.5965-.1995,2.0303-.5987.4339-.3991.7636-.8416.9892-1.3275l2.6811,1.4056c-.243.4512-.5987.9458-1.0673,1.4837-.4512.5206-1.0585.9718-1.8221,1.3536-.7635.3644-1.7353.5466-2.9153.5466Zm-3.1497-8.3035h6.039c-.0694-.7462-.3731-1.3449-.9111-1.7961-.5206-.4512-1.206-.6768-2.0563-.6768-.8851,0-1.5879.2256-2.1085.6768s-.8416,1.0499-.9631,1.7961Z" fill="#fdceaa" fill-opacity="0" stroke-dashoffset="162.459754" stroke-dasharray="263.448249"/><rect id="eMDSoFk0Jzl4" width="68.7084" height="73.334" rx="0" ry="0" transform="translate(1.30151 37.7646)" fill="none" stroke="#b9aafd" stroke-linejoin="round" stroke-dashoffset="284.08" stroke-dasharray="284.08"/><path id="eMDSoFk0Jzl5" d="M70.1953,37.7639L88.1182,18.2158v73.3341L70.1953,111.098v-73.3341Z" fill="none" stroke="#b9aafd" stroke-linejoin="round" stroke-dashoffset="199.71" stroke-dasharray="199.710016"/><path id="eMDSoFk0Jzl6" d="M19.0319,18.2178h69.0442L70.2528,37.7635h-69.0443L19.0319,18.2178Z" fill="none" stroke="#b9aafd" stroke-linejoin="round" stroke-dashoffset="190.99242" stroke-dasharray="190.99242"/><g id="eMDSoFk0Jzl7_ts" transform="translate(44.6423,0) scale(1,0)"><rect width="34.3763" height="27.2893" rx="0" ry="0" transform="translate(-17.188148,0.700195)" fill="#fdceaa"/></g><g id="eMDSoFk0Jzl8_ts" transform="translate(44.642351,27.491199) scale(0,1)"><line x1="20.4456" y1="27.4912" x2="68.8391" y2="27.4912" transform="translate(-44.642351,-27.491199)" fill="none" stroke="#b9aafd"/></g></g></svg>
