<svg width="25" height="25" viewBox="0 0 25 25" fill="none" xmlns="http://www.w3.org/2000/svg">
<path d="M19.0792 5.45822L13.8226 11.11L13.5267 11.4281L13.7877 11.7753L20.0063 20.0501H16.3118L11.856 14.1206L11.4835 13.6248L11.0611 14.0789L5.50737 20.0501H5.45764L11.1653 13.9134L11.4612 13.5954L11.2002 13.2482L5.34619 5.45822H9.04077L13.1322 10.9026L13.5047 11.3984L13.9271 10.9443L19.0294 5.45822H19.0792ZM6.46471 5.49577H5.42546L6.0498 6.32657L16.1789 19.8053L16.3346 20.0125H16.5938H18.8876H19.9268L19.3025 19.1817L9.17339 5.70297L9.01767 5.49577H8.75848H6.46471Z" fill="#FAF1E7" stroke="#FAF1E7" stroke-width="1.03801"/>
</svg>
