<svg width="15" height="14" viewBox="0 0 15 14" fill="none" xmlns="http://www.w3.org/2000/svg">
<mask id="path-1-inside-1_9781_8676" fill="white">
<path d="M0.932482 0.674316L6.36817 7.90758L0.898224 13.7886H2.12939L6.91842 8.63956L10.7877 13.7886H14.9771L9.23545 6.14853L14.3269 0.674316H13.0957L8.68543 5.41631L5.12189 0.674316H0.932482ZM2.74296 1.57677H4.66755L13.1664 12.8861H11.2418L2.74296 1.57677Z"/>
</mask>
<path d="M0.932482 0.674316L6.36817 7.90758L0.898224 13.7886H2.12939L6.91842 8.63956L10.7877 13.7886H14.9771L9.23545 6.14853L14.3269 0.674316H13.0957L8.68543 5.41631L5.12189 0.674316H0.932482ZM2.74296 1.57677H4.66755L13.1664 12.8861H11.2418L2.74296 1.57677Z" fill="url(#paint0_linear_9781_8676)"/>
<path d="M0.932482 0.674316V-0.240909H-0.900143L0.200823 1.22415L0.932482 0.674316ZM6.36817 7.90758L7.03833 8.5309L7.55997 7.97006L7.09983 7.35775L6.36817 7.90758ZM0.898224 13.7886L0.228065 13.1653L-1.20294 14.7038H0.898224V13.7886ZM2.12939 13.7886V14.7038H2.52805L2.79955 14.4119L2.12939 13.7886ZM6.91842 8.63956L7.65009 8.08975L6.99309 7.21544L6.24826 8.01625L6.91842 8.63956ZM10.7877 13.7886L10.056 14.3384L10.3306 14.7038H10.7877V13.7886ZM14.9771 13.7886V14.7038H16.8098L15.7087 13.2387L14.9771 13.7886ZM9.23545 6.14853L8.56528 5.52522L8.04364 6.08607L8.5038 6.69837L9.23545 6.14853ZM14.3269 0.674316L14.9971 1.29763L16.428 -0.240909H14.3269V0.674316ZM13.0957 0.674316V-0.240909H12.6971L12.4256 0.051017L13.0957 0.674316ZM8.68543 5.41631L7.95377 5.96615L8.61079 6.84044L9.3556 6.03961L8.68543 5.41631ZM5.12189 0.674316L5.85354 0.124486L5.57895 -0.240909H5.12189V0.674316ZM2.74296 1.57677V0.661545H0.910332L2.0113 2.1266L2.74296 1.57677ZM4.66755 1.57677L5.39921 1.02694L5.12462 0.661545H4.66755V1.57677ZM13.1664 12.8861V13.8014H14.999L13.898 12.3363L13.1664 12.8861ZM11.2418 12.8861L10.5101 13.436L10.7847 13.8014H11.2418V12.8861ZM0.200823 1.22415L5.63651 8.45741L7.09983 7.35775L1.66414 0.124486L0.200823 1.22415ZM5.69801 7.28427L0.228065 13.1653L1.56838 14.4119L7.03833 8.5309L5.69801 7.28427ZM0.898224 14.7038H2.12939V12.8734H0.898224V14.7038ZM2.79955 14.4119L7.58859 9.26288L6.24826 8.01625L1.45922 13.1653L2.79955 14.4119ZM6.18675 9.18938L10.056 14.3384L11.5194 13.2388L7.65009 8.08975L6.18675 9.18938ZM10.7877 14.7038H14.9771V12.8734H10.7877V14.7038ZM15.7087 13.2387L9.96709 5.59868L8.5038 6.69837L14.2454 14.3384L15.7087 13.2387ZM9.90561 6.77184L14.9971 1.29763L13.6567 0.0510076L8.56528 5.52522L9.90561 6.77184ZM14.3269 -0.240909H13.0957V1.58954H14.3269V-0.240909ZM12.4256 0.051017L8.01525 4.79302L9.3556 6.03961L13.7659 1.29762L12.4256 0.051017ZM9.41709 4.86648L5.85354 0.124486L4.39023 1.22415L7.95377 5.96615L9.41709 4.86648ZM5.12189 -0.240909H0.932482V1.58954H5.12189V-0.240909ZM2.74296 2.492H4.66755V0.661545H2.74296V2.492ZM3.93589 2.1266L12.4347 13.436L13.898 12.3363L5.39921 1.02694L3.93589 2.1266ZM13.1664 11.9709H11.2418V13.8014H13.1664V11.9709ZM11.9734 12.3363L3.47462 1.02694L2.0113 2.1266L10.5101 13.436L11.9734 12.3363Z" fill="url(#paint1_linear_9781_8676)" mask="url(#path-1-inside-1_9781_8676)"/>
<defs>
<linearGradient id="paint0_linear_9781_8676" x1="3.18105" y1="11.2052" x2="10.5479" y2="4.17117" gradientUnits="userSpaceOnUse">
<stop offset="0.0729167" stop-color="#AAC4FD"/>
<stop offset="1" stop-color="#76A0FC"/>
</linearGradient>
<linearGradient id="paint1_linear_9781_8676" x1="3.18105" y1="11.2052" x2="10.5479" y2="4.17117" gradientUnits="userSpaceOnUse">
<stop offset="0.0729167" stop-color="#AAC4FD"/>
<stop offset="1" stop-color="#76A0FC"/>
</linearGradient>
</defs>
</svg>
