<svg id="eX5QAtUVBf31" xmlns="http://www.w3.org/2000/svg" xmlns:xlink="http://www.w3.org/1999/xlink" viewBox="0 0 385.16 503" shape-rendering="geometricPrecision" text-rendering="geometricPrecision" style="background-color:transparent">
<style>
#eX5QAtUVBf34_to {animation: eX5QAtUVBf34_to__to 10000ms linear infinite alternate forwards}@keyframes eX5QAtUVBf34_to__to { 0% {transform: translate(37.057px,69.9477px)} 30% {transform: translate(36.781906px,87.619232px)} 60% {transform: translate(36.781906px,69.9477px)} 100% {transform: translate(36.781906px,69.9477px)}} #eX5QAtUVBf35_to {animation: eX5QAtUVBf35_to__to 10000ms linear infinite alternate forwards}@keyframes eX5QAtUVBf35_to__to { 0% {offset-distance: 0%} 12% {offset-distance: 29.794761%} 42% {offset-distance: 85.232204%} 58% {offset-distance: 100%} 100% {offset-distance: 100%}} #eX5QAtUVBf38_ts {animation: eX5QAtUVBf38_ts__ts 10000ms linear infinite alternate forwards}@keyframes eX5QAtUVBf38_ts__ts { 0% {transform: translate(72.956499px,21.392px) scale(1,1);animation-timing-function: cubic-bezier(0.445,0.05,0.55,0.95)} 14% {transform: translate(72.956499px,21.392px) scale(0.9,0.9);animation-timing-function: cubic-bezier(0.445,0.05,0.55,0.95)} 30% {transform: translate(72.956499px,21.392px) scale(1,1);animation-timing-function: cubic-bezier(0.445,0.05,0.55,0.95)} 44% {transform: translate(72.956499px,21.392px) scale(0.9,0.9);animation-timing-function: cubic-bezier(0.445,0.05,0.55,0.95)} 60% {transform: translate(72.956499px,21.392px) scale(1,1)} 100% {transform: translate(72.956499px,21.392px) scale(1,1)}} #eX5QAtUVBf39_ts {animation: eX5QAtUVBf39_ts__ts 10000ms linear infinite alternate forwards}@keyframes eX5QAtUVBf39_ts__ts { 0% {transform: translate(72.9559px,21.391799px) scale(1,1);animation-timing-function: cubic-bezier(0.445,0.05,0.55,0.95)} 14% {transform: translate(72.9559px,21.391799px) scale(0,1);animation-timing-function: cubic-bezier(0.445,0.05,0.55,0.95)} 30% {transform: translate(72.9559px,21.391799px) scale(1,1);animation-timing-function: cubic-bezier(0.445,0.05,0.55,0.95)} 44% {transform: translate(72.9559px,21.391799px) scale(0,1);animation-timing-function: cubic-bezier(0.445,0.05,0.55,0.95)} 60% {transform: translate(72.9559px,21.391799px) scale(1,1)} 100% {transform: translate(72.9559px,21.391799px) scale(1,1)}} #eX5QAtUVBf312_to {animation: eX5QAtUVBf312_to__to 10000ms linear infinite alternate forwards}@keyframes eX5QAtUVBf312_to__to { 0% {transform: translate(104.360085px,56.390049px)} 20% {transform: translate(104.83819px,58px);animation-timing-function: cubic-bezier(0.42,0,0.58,1)} 40% {transform: translate(104.360085px,56.390049px)} 100% {transform: translate(104.360085px,56.390049px)}} #eX5QAtUVBf312_tr {animation: eX5QAtUVBf312_tr__tr 10000ms linear infinite alternate forwards}@keyframes eX5QAtUVBf312_tr__tr { 0% {transform: rotate(0deg)} 12% {transform: rotate(-7deg);animation-timing-function: cubic-bezier(0.42,0,0.58,1)} 40% {transform: rotate(0deg)} 100% {transform: rotate(0deg)}} #eX5QAtUVBf312_ts {animation: eX5QAtUVBf312_ts__ts 10000ms linear infinite alternate forwards}@keyframes eX5QAtUVBf312_ts__ts { 0% {transform: scale(1,1)} 28% {transform: scale(0.8,0.8);animation-timing-function: cubic-bezier(0.42,0,0.58,1)} 40% {transform: scale(1,1)} 100% {transform: scale(1,1)}} #eX5QAtUVBf316_tr {animation: eX5QAtUVBf316_tr__tr 10000ms linear infinite alternate forwards}@keyframes eX5QAtUVBf316_tr__tr { 0% {transform: translate(49.5px,117.5px) rotate(0deg);animation-timing-function: cubic-bezier(0.875,0.015,0.155,1.005)} 40% {transform: translate(49.5px,117.5px) rotate(720deg)} 100% {transform: translate(49.5px,117.5px) rotate(720deg)}}
</style>
<defs><linearGradient id="eX5QAtUVBf38-fill" x1="90.979" y1="7.516" x2="56.489" y2="35.056" spreadMethod="pad" gradientUnits="userSpaceOnUse" gradientTransform="translate(0 0)"><stop id="eX5QAtUVBf38-fill-0" offset="0%" stop-color="#f4837d"/><stop id="eX5QAtUVBf38-fill-1" offset="100%" stop-color="#fdceaa"/></linearGradient></defs><g transform="matrix(3.125661 0 0 3.125661-.384601 0.869869)" clip-path="url(#eX5QAtUVBf318)"><g><g id="eX5QAtUVBf34_to" transform="translate(37.057,69.9477)"><path d="M42.268,81.325c7.9949,0,14.476-6.4713,14.476-14.454s-6.4811-14.454-14.476-14.454-14.476,6.4713-14.476,14.454s6.4811,14.454,14.476,14.454Z" transform="translate(-42.268,-66.870998)" fill="#87dcc9"/></g><g id="eX5QAtUVBf35_to" style="offset-path:path('M65.395048,114.845613Q61.859369,90.976678,83.811949,96.967533C105.764529,102.958388,95.333861,139.701685,65.395048,131.499897L65.395048,114.845613');offset-rotate:0deg"><path d="M100.794,134.265c12.816,0,23.206-10.375,23.206-23.172c0-12.7976-10.39-23.1721-23.206-23.1721-12.8164,0-23.2061,10.3745-23.2061,23.1721c0,12.797,10.3897,23.172,23.2061,23.172Z" transform="translate(-96.323757,-110.173948)" fill="#b9aafd"/></g><g mask="url(#eX5QAtUVBf310)"><g><g id="eX5QAtUVBf38_ts" transform="translate(72.956499,21.392) scale(1,1)"><path d="M72.957,42.784c11.832,0,21.423-9.577,21.423-21.392C94.38,9.578,84.79,0,72.957,0s-21.424,9.578-21.424,21.392c0,11.815,9.592,21.392,21.424,21.392Z" transform="translate(-72.956499,-21.392)" fill="url(#eX5QAtUVBf38-fill)"/></g><g id="eX5QAtUVBf39_ts" transform="translate(72.9559,21.391799) scale(1,1)"><path d="M58.4949,25.0438l14.462-14.348l14.46,14.348-7.095,7.04-7.226-7.17-.13-.128-.13.128-7.231,7.174-7.11-7.044Z" transform="translate(-72.9559,-21.391799)" fill="#faf1e7"/></g></g><mask id="eX5QAtUVBf310" mask-type="luminance" x="-150%" y="-150%" height="400%" width="400%"><path d="M51.533,0h42.847v42.784h-42.847v-42.784Z" fill="#fff"/></mask></g><g id="eX5QAtUVBf312_to" transform="translate(104.360085,56.390049)"><g id="eX5QAtUVBf312_tr" transform="rotate(0)"><g id="eX5QAtUVBf312_ts" transform="scale(1,1)"><path d="M103.896,37.7808c.075-.6028.974-.6,1.045.0033l.602,5.0555c.775,6.5282,6.05,11.6904,12.759,12.4856l5.195.6164c.619.0729.617.948-.004,1.0171l-5.198.5837c-6.714.7531-12.021,5.882-12.838,12.4053l-.632,5.0516c-.075.6028-.974.6-1.046-.0033l-.601-5.0555c-.776-6.5282-6.051-11.6905-12.7599-12.4856l-5.1946-.6164c-.6197-.073-.6169-.9481.0032-1.0171l5.1994-.5838c6.7127-.753,12.0199-5.8819,12.8369-12.4052l.633-5.0516Z" transform="translate(-104.360085,-56.390049)" opacity="0.992774" fill="#fdceaa"/></g></g></g><path d="M5.13208,72h88.00002v88h-87.99901L5.13208,72Z" fill="#1f2333" stroke="#87dcc9"/><path d="M16.1691,84L81,84v65h-64.8309v-65ZM0,131.474h4.77703v17.525h-4.77703v-17.525ZM0,84h4.77703v17.526h-4.77703L0,84Z" fill="none" stroke="#87dcc9"/><path d="M49.5,143C63.5833,143,75,131.583,75,117.5s-11.4167-25.5-25.5-25.5-25.5,11.417-25.5,25.5s11.4167,25.5,25.5,25.5Z" fill="#b9aafd"/><g id="eX5QAtUVBf316_tr" transform="translate(49.5,117.5) rotate(0)"><path d="M49,98.5c0-.2761.2239-.5.5-.5v0c.2761,0,.5.2239.5.5v5c0,.276-.2239.5-.5.5v0c-.2761,0-.5-.224-.5-.5v-5Zm0,33c0-.276.2239-.5.5-.5v0c.2761,0,.5.224.5.5v5c0,.276-.2239.5-.5.5v0c-.2761,0-.5-.224-.5-.5v-5ZM30.5,118c-.2761,0-.5-.224-.5-.5v0c0-.276.2239-.5.5-.5h5c.2761,0,.5.224.5.5v0c0,.276-.2239.5-.5.5h-5Zm33,0c-.2761,0-.5-.224-.5-.5v0c0-.276.2239-.5.5-.5h5c.2761,0,.5.224.5.5v0c0,.276-.2239.5-.5.5h-5ZM35.7115,104.418c-.1953-.195-.1953-.511,0-.707v0c.1952-.195.5118-.195.7071,0l3.5355,3.536c.1953.195.1953.512,0,.707v0c-.1953.195-.5118.195-.7071,0l-3.5355-3.536ZM59.046,127.753c-.1953-.195-.1953-.512,0-.707v0c.1952-.195.5118-.195.7071,0l3.5355,3.535c.1953.196.1953.512,0,.708v0c-.1952.195-.5118.195-.7071,0l-3.5355-3.536Zm3.5355-24.042c.1953-.195.5118-.195.7071,0v0c.1953.196.1953.512,0,.708l-3.5355,3.535c-.1953.195-.5119.195-.7071,0v0c-.1953-.195-.1953-.512,0-.707l3.5355-3.536ZM39.247,127.046c.1952-.195.5118-.195.7071,0v0c.1953.195.1953.512,0,.707l-3.5355,3.536c-.1953.195-.5119.195-.7072,0v0c-.1952-.196-.1952-.512,0-.707l3.5356-3.536Z" transform="translate(-49.5,-117.5)" fill="#1f2333"/></g><path d="M49.5,126c4.6944,0,8.5-3.806,8.5-8.5s-3.8056-8.5-8.5-8.5-8.5,3.806-8.5,8.5s3.8056,8.5,8.5,8.5Z" fill="#1f2333"/></g><clipPath id="eX5QAtUVBf318"><rect width="124" height="161" rx="0" ry="0" fill="#fff"/></clipPath></g></svg>
