<?xml version="1.0" encoding="UTF-8" standalone="no"?>
<svg
   width="30"
   height="30"
   viewBox="0 0 30 30"
   fill="none"
   class="_logo_13ykx_18"
   version="1.1"
   id="svg5"
   xmlns="http://www.w3.org/2000/svg"
   xmlns:svg="http://www.w3.org/2000/svg">
  <circle
     style="fill:#ffffff;fill-opacity:1"
     id="path6"
     cx="15.003222"
     cy="15.028555"
     r="14.912147" />
  <g
     clip-path="url(#clip0_39_1191)"
     fill="none"
     id="g5"
     transform="matrix(0.49975838,0,0,0.49975838,3.281053,7.262118)">
    <path
       d="m 25.7821,18.0126 c -1.2716,-1.9064 -3.4098,-3.052 -5.7011,-3.052 H 7.39815 V 7.56241 H 18.8161 L 15.9352,3.241 C 14.6545,1.32113 12.4961,0.166504 10.1868,0.166504 H 7.39815 C 3.31308,0.166504 0,3.47958 0,7.56466 v 7.39814 c 0,4.0851 3.31308,7.3982 7.39815,7.3982 H 28.6811 l -2.8967,-4.3462 z"
       fill="#000000"
       id="path1" />
    <path
       d="M 40.0876,7.56494 H 18.8047 l 2.8967,4.34616 c 1.2716,1.9064 3.4098,3.052 5.7011,3.052 h 12.6829 v 7.3981 h -11.418 l 2.8809,4.3215 c 1.2807,1.9221 3.4391,3.0767 5.7507,3.0767 h 2.7886 c 4.0851,0 7.3982,-3.3131 7.3982,-7.3982 v -7.3981 c 0,-4.0851 -3.3131,-7.39816 -7.3982,-7.39816 z"
       fill="#6649df"
       id="path2" />
    <path
       d="m 73.8734,26.8512 c -2.0302,2.0302 -4.8886,2.9012 -7.9563,2.9012 H 54.9785 V 0.247559 h 10.9386 c 3.0655,0 5.9261,0.871031 7.9563,2.901191 3.4391,3.43912 3.0655,7.20905 3.0655,11.85235 0,4.6433 0.3736,8.411 -3.0655,11.8501 z M 68.9015,8.37045 C 68.2376,7.37563 67.245,6.71391 65.4197,6.71391 H 62.2281 V 23.2883 h 3.1916 c 1.8231,0 2.8179,-0.664 3.4818,-1.6565 0.5807,-0.8283 0.7878,-1.6161 0.7878,-6.6307 0,-5.01463 -0.2071,-5.80238 -0.7878,-6.63065 z"
       fill="#000000"
       id="path3" />
    <path
       d="m 90.4892,29.9998 c -5.4288,0 -9.9033,-2.9417 -9.9033,-9.0749 0,-3.689 2.1967,-5.4288 3.3154,-6.3403 -1.0354,-0.8711 -3.025,-2.6514 -3.025,-5.84295 0,-5.59307 4.5577,-8.74409141 9.6129,-8.74409141 5.0551,0 9.6128,3.14877141 9.6128,8.74409141 0,3.19155 -1.9896,4.97185 -3.025,5.84295 1.1187,0.9115 3.315,2.6513 3.315,6.3403 0,6.1332 -4.4741,9.0749 -9.9028,9.0749 z m 0,-12.3475 c -1.6993,0 -3.1083,1.409 -3.1083,3.1083 0,1.6993 1.409,3.1082 3.1083,3.1082 1.6993,0 3.1082,-1.4089 3.1082,-3.1082 0,-1.6993 -1.4089,-3.1083 -3.1082,-3.1083 z m 0,-11.51925 c -1.5756,0 -2.818,1.24241 -2.818,2.81792 0,1.57553 1.2424,2.81793 2.818,2.81793 1.5755,0 2.8179,-1.2424 2.8179,-2.81793 0,-1.57551 -1.2424,-2.81792 -2.8179,-2.81792 z"
       fill="#000000"
       id="path4" />
    <path
       d="m 119.991,29.7524 -4.848,-9.0749 -4.848,9.0749 h -8.287 l 9.199,-15.1249 -8.619,-14.379941 h 8.247 l 4.31,8.329961 4.31,-8.329961 h 8.247 l -8.618,14.379941 9.199,15.1249 h -8.287 z"
       fill="#000000"
       id="path5" />
  </g>
  <defs
     id="defs5">
    <clipPath
       id="clip0_39_1191">
      <rect
         width="128.278"
         height="30"
         fill="#ffffff"
         id="rect5"
         x="0"
         y="0" />
    </clipPath>
  </defs>
</svg>
