<svg fill="none" height="38" width="38" xmlns="http://www.w3.org/2000/svg" xmlns:xlink="http://www.w3.org/1999/xlink"><linearGradient id="a"><stop offset="0" stop-color="#35029c"/><stop offset=".469" stop-color="#5125aa" stop-opacity=".86"/><stop offset="1" stop-color="#fff" stop-opacity="0"/></linearGradient><linearGradient id="b" gradientUnits="userSpaceOnUse" x1="25.641" x2="25.641" xlink:href="#a" y1="9.499" y2="14.948"/><linearGradient id="c" gradientUnits="userSpaceOnUse" x1="13.156" x2="13.156" xlink:href="#a" y1="29.361" y2="23.912"/><path d="M19 38c10.493 0 19-8.507 19-19S29.493 0 19 0 0 8.507 0 19s8.507 19 19 19z" fill="#500ec1"/><path d="M18.454 24.612a.595.595 0 0 1-.515-.89l8.015-13.925a.594.594 0 0 1 .514-.298h1.614c.453 0 .74.488.518.883l-7.784 13.926a.593.593 0 0 1-.518.304z" fill="#fff"/><path d="M22.563 14.843l3.582.105 3.1-5.449H25.53l-2.968 5.344z" fill="url(#b)" opacity=".6"/><path d="M27.866 11.613a.594.594 0 0 1-.492.261H10.985a.594.594 0 0 1-.474-.238L9.62 10.45a.594.594 0 0 1 .475-.95h18.083c.476 0 .758.532.491.926l-.803 1.188zm-7.523 2.636c.457 0 .742.494.515.89l-8.015 13.925a.595.595 0 0 1-.515.297h-1.613a.594.594 0 0 1-.518-.883l7.783-13.925a.593.593 0 0 1 .519-.304z" fill="#fff"/><path d="M16.234 24.018l-3.582-.106-3.1 5.45h3.714z" fill="url(#c)" opacity=".6"/><path d="M10.932 27.247a.594.594 0 0 1 .49-.26h15.595c.186 0 .362.087.474.237l.89 1.187a.593.593 0 0 1-.474.95H10.62a.594.594 0 0 1-.492-.926z" fill="#fff"/></svg>