<svg width="25" height="25" viewBox="0 0 25 25" fill="none" xmlns="http://www.w3.org/2000/svg">
<path d="M12.6558 3.00049C7.13367 3.00049 2.65576 7.47757 2.65576 13.0006C2.65576 17.4189 5.52109 21.1673 9.49443 22.4896C9.9942 22.5822 10.1777 22.2727 10.1777 22.0086C10.1777 21.7701 10.1684 20.9824 10.1641 20.1468C7.38207 20.7517 6.79503 18.9669 6.79503 18.9669C6.34013 17.811 5.6847 17.5037 5.6847 17.5037C4.77739 16.883 5.75309 16.8958 5.75309 16.8958C6.75727 16.9663 7.28602 17.9263 7.28602 17.9263C8.17793 19.4551 9.62542 19.0131 10.1961 18.7576C10.2858 18.1112 10.545 17.6701 10.831 17.4204C8.60981 17.1675 6.27489 16.31 6.27489 12.4783C6.27489 11.3865 6.66553 10.4944 7.30523 9.79411C7.2014 9.54224 6.85912 8.52514 7.40211 7.1477C7.40211 7.1477 8.24185 6.87894 10.1528 8.17275C10.9505 7.95118 11.806 7.84007 12.6558 7.83626C13.5057 7.84007 14.3618 7.95118 15.161 8.17275C17.0697 6.87894 17.9083 7.1477 17.9083 7.1477C18.4526 8.52514 18.1101 9.54224 18.0063 9.79411C18.6475 10.4944 19.0355 11.3865 19.0355 12.4783C19.0355 16.3191 16.6961 17.1648 14.4693 17.4124C14.828 17.7227 15.1476 18.3313 15.1476 19.2643C15.1476 20.6023 15.136 21.6792 15.136 22.0086C15.136 22.2747 15.316 22.5865 15.8229 22.4883C19.7941 21.1645 22.6558 17.4174 22.6558 13.0006C22.6558 7.47757 18.1785 3.00049 12.6558 3.00049ZM6.40112 17.2458C6.37909 17.2955 6.30093 17.3104 6.22972 17.2763C6.15719 17.2437 6.11646 17.1759 6.13997 17.1261C6.1615 17.0749 6.23983 17.0607 6.31219 17.095C6.38489 17.1276 6.42629 17.196 6.40112 17.2458ZM6.89301 17.6847C6.84532 17.7289 6.75209 17.7084 6.68883 17.6385C6.62342 17.5688 6.61116 17.4756 6.65952 17.4307C6.7087 17.3865 6.79912 17.4072 6.86469 17.4769C6.9301 17.5474 6.94286 17.64 6.89301 17.6847ZM7.23047 18.2463C7.1692 18.2889 7.06901 18.2489 7.00708 18.16C6.94581 18.0711 6.94581 17.9645 7.0084 17.9217C7.0705 17.879 7.1692 17.9174 7.23196 18.0057C7.29306 18.0961 7.29306 18.2027 7.23047 18.2463ZM7.80118 18.8967C7.74637 18.9571 7.62962 18.9409 7.54417 18.8584C7.45674 18.7778 7.4324 18.6633 7.48737 18.6029C7.54285 18.5423 7.66026 18.5594 7.74637 18.6412C7.83314 18.7216 7.85964 18.8369 7.80118 18.8967ZM8.53877 19.1162C8.51459 19.1946 8.40215 19.2302 8.28888 19.1969C8.17578 19.1626 8.10176 19.0709 8.12461 18.9917C8.14813 18.9129 8.26106 18.8758 8.37516 18.9114C8.4881 18.9455 8.56229 19.0366 8.53877 19.1162ZM9.37818 19.2094C9.38099 19.2918 9.28495 19.3602 9.16605 19.3617C9.04649 19.3644 8.94978 19.2976 8.94845 19.2165C8.94845 19.1332 9.04235 19.0655 9.16191 19.0635C9.28081 19.0612 9.37818 19.1274 9.37818 19.2094ZM10.2028 19.1778C10.217 19.2582 10.1344 19.3409 10.0163 19.3629C9.90026 19.3841 9.79279 19.3344 9.77805 19.2546C9.76364 19.1721 9.84776 19.0895 9.96368 19.0681C10.0819 19.0476 10.1877 19.096 10.2028 19.1778Z" fill="#FAF1E7"/>
</svg>
