<svg width="20" height="20" viewBox="0 0 20 20" fill="none" xmlns="http://www.w3.org/2000/svg">
<path d="M4.99992 9.99996C4.99992 12.7583 7.24158 15 9.99992 15C10.8416 15 11.6416 14.7916 12.3333 14.4166L13.5499 15.6333C12.5249 16.2833 11.3083 16.6666 9.99992 16.6666C6.31658 16.6666 3.33325 13.6833 3.33325 9.99996H0.833252L4.16658 6.66663L7.49992 9.99996H4.99992Z" fill="#B9AAFD"/>
<path d="M14.55 9.66667C14.55 6.90833 12.3083 4.66667 9.55001 4.66667C8.70834 4.66667 7.90834 4.875 7.21668 5.25L6.00001 4.03333C7.02501 3.38333 8.24168 3 9.55001 3C13.2333 3 16.2167 5.98333 16.2167 9.66667L18.7167 9.66667L15.3833 13L12.05 9.66667L14.55 9.66667Z" fill="#76A0FC"/>
</svg>
