<svg width="24" height="24" viewBox="0 0 24 24" fill="none" xmlns="http://www.w3.org/2000/svg">
<path d="M2.2806 9.8924L1.61606 10.5484L2.2806 9.8924L2.11103 9.72064C1.54117 9.14337 1.85954 8.16351 2.65989 8.03145L2.89802 7.99216C4.51789 7.72488 5.62202 6.20517 5.37565 4.582L5.33943 4.34337C5.21771 3.54139 6.05123 2.9358 6.77634 3.2994L6.9921 3.40758C8.4597 4.14348 10.2462 3.563 11.001 2.10502L11.1119 1.89067C11.4849 1.17031 12.5151 1.17031 12.8881 1.89067L12.999 2.10502L13.8871 1.64529L12.999 2.10502C13.7538 3.563 15.5403 4.14348 17.0079 3.40758L17.2237 3.2994C17.9488 2.9358 18.7823 3.54139 18.6606 4.34337L18.6243 4.582C18.378 6.20517 19.4821 7.72488 21.102 7.99216L21.3401 8.03145C22.1405 8.16351 22.4588 9.14337 21.889 9.72064L21.7194 9.8924L22.4311 10.5949L21.7194 9.89241C20.566 11.0608 20.566 12.9392 21.7194 14.1076L21.889 14.2794C22.4588 14.8566 22.1405 15.8365 21.3401 15.9685L21.102 16.0078C19.4821 16.2751 18.378 17.7948 18.6243 19.418L18.6606 19.6566C18.7823 20.4586 17.9488 21.0642 17.2237 20.7006L17.0079 20.5924C15.5403 19.8565 13.7538 20.437 12.999 21.895L12.8881 22.1093C12.5151 22.8297 11.4849 22.8297 11.1119 22.1093L10.2239 22.5691L11.1119 22.1093L11.001 21.895C10.2462 20.437 8.4597 19.8565 6.9921 20.5924L6.77635 20.7006C6.05123 21.0642 5.21771 20.4586 5.33943 19.6566L5.37565 19.418C5.62202 17.7948 4.51788 16.2751 2.89802 16.0078L2.65988 15.9685C1.85954 15.8365 1.54117 14.8566 2.11103 14.2794L2.2806 14.1076C3.43399 12.9392 3.43399 11.0608 2.2806 9.8924Z" stroke="#B9AAFD" stroke-width="2"/>
<circle cx="12" cy="12" r="3.5" stroke="#FDCEAA"/>
</svg>
