<svg width="18" height="19" viewBox="0 0 18 19" fill="none" xmlns="http://www.w3.org/2000/svg">
<path d="M15.75 7.69147H11.0175L11.73 4.26397L11.7525 4.02397C11.7525 3.71647 11.625 3.43147 11.4225 3.22897L10.6275 2.44147L5.6925 7.38397C5.415 7.65397 5.25 8.02897 5.25 8.44147V15.9415C5.25 16.7665 5.925 17.4415 6.75 17.4415H13.5C14.1225 17.4415 14.655 17.0665 14.88 16.5265L17.145 11.239C17.2125 11.0665 17.25 10.8865 17.25 10.6915V9.19147C17.25 8.36647 16.575 7.69147 15.75 7.69147ZM15.75 10.6915L13.5 15.9415H6.75V8.44147L10.005 5.18647L9.1725 9.19147H15.75V10.6915ZM0.75 8.44147H3.75V17.4415H0.75V8.44147Z" fill="url(#paint0_linear_10276_33753)"/>
<defs>
<linearGradient id="paint0_linear_10276_33753" x1="16.1346" y1="6.04452" x2="2.30991" y2="15.5682" gradientUnits="userSpaceOnUse">
<stop stop-color="#FDCEAA"/>
<stop offset="1" stop-color="#FAF1E7"/>
</linearGradient>
</defs>
</svg>
