<svg width="16" height="16" fill="none" xmlns="http://www.w3.org/2000/svg"><circle cx="7.579" cy="7.656" r="7.5" fill="#FDCEAA"/><path d="M6.814 9.086v-.352c0-.367.07-.664.21-.891.146-.235.388-.43.725-.583l.21-.1c.344-.16.608-.333.791-.516.184-.19.275-.444.275-.76a.983.983 0 0 0-.176-.593 1.095 1.095 0 0 0-.495-.385 1.803 1.803 0 0 0-.715-.132c-.286 0-.542.048-.77.143-.22.095-.4.238-.539.429-.132.183-.198.418-.198.704v.286H4.834v-.264c0-.506.121-.939.363-1.298.25-.367.587-.645 1.012-.836.426-.19.902-.286 1.43-.286.52 0 .983.095 1.386.286.404.19.719.455.946.792.235.33.352.715.352 1.155 0 .433-.08.788-.242 1.067a2.012 2.012 0 0 1-.605.682c-.25.176-.506.326-.77.45l-.22.1a.573.573 0 0 0-.275.22.749.749 0 0 0-.077.374v.308h-1.32zm.693 2.574a.985.985 0 0 1-.693-.264.953.953 0 0 1-.275-.704c0-.286.092-.52.275-.704a.963.963 0 0 1 .693-.275.94.94 0 0 1 .693.275c.19.183.286.418.286.704s-.095.52-.286.704a.96.96 0 0 1-.693.264z" fill="#1F2333"/></svg>