<svg width="24" height="25" viewBox="0 0 24 25" fill="none" xmlns="http://www.w3.org/2000/svg">
<circle cx="12.3934" cy="7.48058" r="4.01402" fill="#B9AAFD"/>
<path d="M3.07189 21.4232H3.07075C3.33012 16.7167 7.22872 12.9802 12 12.9802C16.7713 12.9802 20.6699 16.7167 20.9293 21.4232H20.9282H20.9187H20.9091H20.8995H20.8898H20.8799H20.8701H20.8601H20.85H20.8399H20.8297H20.8194H20.809H20.7986H20.7881H20.7774H20.7668H20.756H20.7451H20.7342H20.7232H20.7121H20.701H20.6897H20.6784H20.667H20.6556H20.644H20.6324H20.6207H20.6089H20.597H20.5851H20.5731H20.561H20.5488H20.5366H20.5243H20.5119H20.4994H20.4869H20.4742H20.4615H20.4488H20.4359H20.423H20.41H20.3969H20.3838H20.3706H20.3573H20.3439H20.3304H20.3169H20.3033H20.2897H20.2759H20.2621H20.2482H20.2343H20.2202H20.2061H20.192H20.1777H20.1634H20.149H20.1345H20.12H20.1054H20.0907H20.076H20.0611H20.0462H20.0313H20.0162H20.0011H19.986H19.9707H19.9554H19.94H19.9245H19.909H19.8934H19.8778H19.862H19.8462H19.8303H19.8144H19.7984H19.7823H19.7661H19.7499H19.7336H19.7173H19.7009H19.6844H19.6678H19.6512H19.6345H19.6177H19.6009H19.584H19.5671H19.55H19.5329H19.5158H19.4986H19.4813H19.4639H19.4465H19.429H19.4114H19.3938H19.3761H19.3584H19.3406H19.3227H19.3047H19.2867H19.2687H19.2505H19.2323H19.214H19.1957H19.1773H19.1589H19.1403H19.1218H19.1031H19.0844H19.0656H19.0468H19.0279H19.0089H18.9899H18.9708H18.9517H18.9325H18.9132H18.8939H18.8745H18.8551H18.8355H18.816H18.7963H18.7766H18.7569H18.7371H18.7172H18.6973H18.6773H18.6572H18.6371H18.6169H18.5967H18.5764H18.556H18.5356H18.5152H18.4946H18.474H18.4534H18.4327H18.4119H18.3911H18.3702H18.3493H18.3283H18.3073H18.2862H18.265H18.2438H18.2225H18.2012H18.1798H18.1583H18.1368H18.1153H18.0937H18.072H18.0503H18.0285H18.0067H17.9848H17.9628H17.9408H17.9188H17.8967H17.8745H17.8523H17.83H17.8077H17.7853H17.7629H17.7404H17.7179H17.6953H17.6726H17.6499H17.6272H17.6044H17.5815H17.5586H17.5357H17.5127H17.4896H17.4665H17.4433H17.4201H17.3968H17.3735H17.3501H17.3267H17.3032H17.2797H17.2561H17.2325H17.2088H17.1851H17.1613H17.1375H17.1136H17.0897H17.0658H17.0417H17.0177H16.9935H16.9694H16.9452H16.9209H16.8966H16.8722H16.8478H16.8234H16.7989H16.7743H16.7497H16.7251H16.7004H16.6756H16.6508H16.626H16.6011H16.5762H16.5512H16.5262H16.5011H16.476H16.4509H16.4257H16.4004H16.3751H16.3498H16.3244H16.299H16.2735H16.248H16.2224H16.1968H16.1712H16.1455H16.1198H16.094H16.0681H16.0423H16.0164H15.9904H15.9644H15.9384H15.9123H15.8862H15.86H15.8338H15.8076H15.7813H15.7549H15.7286H15.7021H15.6757H15.6492H15.6226H15.5961H15.5694H15.5428H15.5161H15.4893H15.4625H15.4357H15.4089H15.382H15.355H15.328H15.301H15.274H15.2469H15.2197H15.1925H15.1653H15.1381H15.1108H15.0835H15.0561H15.0287H15.0012H14.9738H14.9462H14.9187H14.8911H14.8635H14.8358H14.8081H14.7804H14.7526H14.7248H14.6969H14.669H14.6411H14.6132H14.5852H14.5571H14.5291H14.501H14.4729H14.4447H14.4165H14.3883H14.36H14.3317H14.3033H14.275H14.2466H14.2181H14.1897H14.1612H14.1326H14.104H14.0754H14.0468H14.0181H13.9894H13.9607H13.9319H13.9031H13.8743H13.8454H13.8165H13.7876H13.7587H13.7297H13.7007H13.6716H13.6425H13.6134H13.5843H13.5551H13.5259H13.4967H13.4674H13.4381H13.4088H13.3794H13.3501H13.3207H13.2912H13.2617H13.2323H13.2027H13.1732H13.1436H13.114H13.0843H13.0547H13.025H12.9953H12.9655H12.9358H12.9059H12.8761H12.8463H12.8164H12.7865H12.7565H12.7266H12.6966H12.6666H12.6365H12.6065H12.5764H12.5463H12.5161H12.486H12.4558H12.4256H12.3953H12.3651H12.3348H12.3045H12.2741H12.2438H12.2134H12.183H12.1525H12.1221H12.0916H12.0611H12.0306H12H11.9695H11.939H11.9085H11.878H11.8475H11.8171H11.7867H11.7563H11.7259H11.6956H11.6653H11.635H11.6047H11.5745H11.5443H11.5141H11.4839H11.4538H11.4237H11.3936H11.3635H11.3335H11.3035H11.2735H11.2435H11.2136H11.1837H11.1538H11.1239H11.0941H11.0643H11.0345H11.0048H10.9751H10.9454H10.9157H10.8861H10.8565H10.8269H10.7973H10.7678H10.7383H10.7088H10.6794H10.65H10.6206H10.5913H10.562H10.5327H10.5034H10.4742H10.445H10.4158H10.3867H10.3575H10.3285H10.2994H10.2704H10.2414H10.2124H10.1835H10.1546H10.1258H10.0969H10.0681H10.0394H10.0106H9.98193H9.95326H9.92462H9.89602H9.86744H9.83891H9.8104H9.78193H9.75349H9.72508H9.69671H9.66838H9.64007H9.6118H9.58357H9.55537H9.5272H9.49907H9.47097H9.44291H9.41489H9.3869H9.35894H9.33102H9.30314H9.27529H9.24748H9.2197H9.19196H9.16426H9.1366H9.10897H9.08137H9.05382H9.0263H8.99882H8.97138H8.94397H8.9166H8.88928H8.86198H8.83473H8.80752H8.78034H8.7532H8.7261H8.69904H8.67202H8.64504H8.6181H8.5912H8.56433H8.53751H8.51073H8.48399H8.45728H8.43062H8.404H8.37742H8.35088H8.32438H8.29792H8.2715H8.24513H8.2188H8.1925H8.16625H8.14005H8.11388H8.08776H8.06168H8.03564H8.00964H7.98369H7.95778H7.93191H7.90609H7.88031H7.85457H7.82888H7.80323H7.77763H7.75207H7.72655H7.70108H7.67565H7.65027H7.62493H7.59964H7.57439H7.54919H7.52404H7.49892H7.47386H7.44884H7.42387H7.39894H7.37406H7.34923H7.32444H7.2997H7.27501H7.25036H7.22576H7.20121H7.17671H7.15225H7.12784H7.10348H7.07917H7.0549H7.03069H7.00652H6.9824H6.95833H6.93431H6.91034H6.88641H6.86254H6.83872H6.81494H6.79122H6.76754H6.74392H6.72035H6.69682H6.67335H6.64993H6.62656H6.60324H6.57997H6.55675H6.53358H6.51047H6.4874H6.46439H6.44143H6.41853H6.39567H6.37287H6.35012H6.32742H6.30478H6.28219H6.25965H6.23716H6.21473H6.19235H6.17003H6.14776H6.12554H6.10338H6.08127H6.05922H6.03722H6.01528H5.99339H5.97156H5.94978H5.92806H5.90639H5.88478H5.86322H5.84172H5.82027H5.79889H5.77755H5.75628H5.73506H5.7139H5.69279H5.67175H5.65075H5.62982H5.60895H5.58813H5.56737H5.54666H5.52602H5.50543H5.48491H5.46444H5.44403H5.42368H5.40338H5.38315H5.36297H5.34286H5.3228H5.30281H5.28287H5.263H5.24318H5.22343H5.20373H5.1841H5.16452H5.14501H5.12556H5.10617H5.08684H5.06757H5.04836H5.02922H5.01013H4.99111H4.97215H4.95326H4.93442H4.91565H4.89694H4.8783H4.85971H4.84119H4.82274H4.80434H4.78601H4.76775H4.74955H4.73141H4.71333H4.69532H4.67738H4.6595H4.64168H4.62393H4.60625H4.58863H4.57107H4.55358H4.53616H4.5188H4.50151H4.48428H4.46712H4.45003H4.433H4.41604H4.39915H4.38232H4.36556H4.34887H4.33224H4.31568H4.29919H4.28277H4.26642H4.25013H4.23391H4.21776H4.20168H4.18567H4.16973H4.15385H4.13805H4.12231H4.10664H4.09105H4.07552H4.06006H4.04467H4.02935H4.01411H3.99893H3.98382H3.96879H3.95382H3.93893H3.92411H3.90935H3.89467H3.88006H3.86553H3.85106H3.83667H3.82235H3.8081H3.79392H3.77982H3.76579H3.75183H3.73794H3.72413H3.71039H3.69673H3.68314H3.66962H3.65618H3.64281H3.62951H3.61629H3.60314H3.59007H3.57707H3.56415H3.5513H3.53853H3.52583H3.51321H3.50066H3.48819H3.4758H3.46348H3.45124H3.43907H3.42698H3.41497H3.40303H3.39117H3.37939H3.36769H3.35606H3.34451H3.33304H3.32164H3.31032H3.29909H3.28793H3.27684H3.26584H3.25492H3.24407H3.2333H3.22262H3.21201H3.20148H3.19103H3.18066H3.17037H3.16016H3.15003H3.13998H3.13001H3.12012H3.11031H3.10058H3.09094H3.08137H3.07189Z" stroke="url(#paint0_linear_10290_1941)"/>
<defs>
<linearGradient id="paint0_linear_10290_1941" x1="2.55715" y1="17.2017" x2="21.4431" y2="17.2017" gradientUnits="userSpaceOnUse">
<stop stop-color="#FAF1E7"/>
<stop offset="0.26021" stop-color="#FDCEAA"/>
<stop offset="0.61201" stop-color="#F4837D"/>
<stop offset="0.9999" stop-color="#B9AAFD"/>
</linearGradient>
</defs>
</svg>
